<?xml version="1.0" encoding="UTF-8"?>
<svg width="18px" height="17px" viewBox="0 0 18 17" version="1.1" xmlns="http://www.w3.org/2000/svg" xmlns:xlink="http://www.w3.org/1999/xlink">
    <!-- Generator: Sketch 51.1 (57501) - http://www.bohemiancoding.com/sketch -->
    <title>Shape</title>
    <desc>Created with Sketch.</desc>
    <defs></defs>
    <g id="Data" stroke="none" stroke-width="1" fill="none" fill-rule="evenodd">
        <g id="A.-Data---Startpagina---Desktop-[1366px]" transform="translate(-858.000000, -551.000000)" fill="#154273" fill-rule="nonzero">
            <g id="Form-elements" transform="translate(593.000000, 542.000000)">
                <g id="Toggle" transform="translate(0.000000, 0.475448)">
                    <path d="M266.660227,19.5229589 L274.591313,19.5229589 L272.210987,23.0921987 C271.952255,23.4888493 271.940002,23.997611 272.17934,24.4062486 C272.418678,24.8148862 272.868493,25.0532049 273.341142,25.0217877 C273.593178,25.0035934 273.833782,24.9094768 274.031236,24.7518452 L282.5324,17.9932847 C282.827868,17.7580697 283,17.4010711 283,17.0234913 C283,16.6459115 282.827868,16.2889129 282.5324,16.0536978 L274.001232,9.29513739 C273.52067,8.91628565 272.837286,8.93737038 272.38101,9.34512674 C271.929283,9.7563065 271.844404,10.4351024 272.180983,10.944786 L274.591313,14.5240237 L266.660227,14.5240237 C265.380052,14.5240237 265,15.9237255 265,17.1734593 C265,18.4231932 265.380052,19.5229589 266.660227,19.5229589 Z" id="Shape"></path>
                </g>
            </g>
        </g>
    </g>
</svg>