<svg aria-hidden="true" focusable="false" role="img" version="1.2" xmlns="http://www.w3.org/2000/svg" width="64" height="64"><path fill="none" d="M0 0h64v64H0z"/><path d="M55.586 47.403L36.593 28.41c-3.345 3.774-6.434 4.908-7.079 5.116-.283.091-.447.02-.5-.104.6-.488 1.2-1.01 1.796-1.607 6.68-6.68 6.548-13.715.852-19.412-3.62-3.622-7.777-4.983-12.04-3.791-.697.195-.954 1.06-.489 1.614 1.517 1.807 2.978 3.587 3.665 4.534 1.02 1.405 2.883 4.013 1.147 5.749L18.83 25.62c-1.735 1.736-4.155-.263-5.558-1.28-.91-.659-2.516-2.106-4.16-3.65-.555-.521-1.49-.263-1.66.479-.933 4.073.471 8.034 3.94 11.501 4.195 4.198 9.12 5.359 14.093 3.017l20.909 20.908c2.447 2.447 5.337 1.018 7.774-1.421 2.438-2.435 3.866-5.323 1.418-7.772zM49.5 53.075a2.575 2.575 0 1 1 0-5.15 2.575 2.575 0 0 1 0 5.15z"/></svg>