<?xml version="1.0" encoding="UTF-8"?>
<svg width="18px" height="17px" viewBox="0 0 18 17" version="1.1" xmlns="http://www.w3.org/2000/svg" xmlns:xlink="http://www.w3.org/1999/xlink">
    <!-- Generator: Sketch 51.1 (57501) - http://www.bohemiancoding.com/sketch -->
    <title>icon-cta-left</title>
    <desc>Created with Sketch.</desc>
    <defs></defs>
    <g id="Page-1" stroke="none" stroke-width="1" fill="none" fill-rule="evenodd">
        <g id="icon-cta-left" transform="translate(9.000000, 8.500000) rotate(180.000000) translate(-9.000000, -8.500000) " fill="#154273" fill-rule="nonzero">
            <path d="M1.660227,10.9984069 L9.591313,10.9984069 L7.210987,14.5676467 C6.952255,14.9642973 6.940002,15.473059 7.17934,15.8816966 C7.418678,16.2903342 7.868493,16.5286529 8.341142,16.4972357 C8.593178,16.4790414 8.833782,16.3849248 9.031236,16.2272932 L17.5324,9.4687327 C17.827868,9.2335177 18,8.8765191 18,8.4989393 C18,8.1213595 17.827868,7.7643609 17.5324,7.5291458 L9.001232,0.77058539 C8.52067,0.39173365 7.837286,0.41281838 7.38101,0.82057474 C6.929283,1.2317545 6.844404,1.9105504 7.180983,2.420234 L9.591313,5.9994717 L1.660227,5.9994717 C0.380052,5.9994717 0,7.3991735 0,8.6489073 C0,9.8986412 0.380052,10.9984069 1.660227,10.9984069 Z" id="Shape"></path>
        </g>
    </g>
</svg>