<?xml version="1.0" encoding="utf-8"?>
<!-- Generator: Adobe Illustrator 21.0.2, SVG Export Plug-In . SVG Version: 6.00 Build 0)  -->
<!DOCTYPE svg PUBLIC "-//W3C//DTD SVG 1.1//EN" "http://www.w3.org/Graphics/SVG/1.1/DTD/svg11.dtd">
<svg version="1.1" xmlns="http://www.w3.org/2000/svg" xmlns:xlink="http://www.w3.org/1999/xlink" x="0px" y="0px" width="24px"
	 height="24px" viewBox="0 0 24 24" style="enable-background:new 0 0 24 24;" xml:space="preserve">
<style type="text/css">
	.st0{fill:none;}
	.st1{fill:#39870C;}
	.st2{fill:#D52B1E;}
	.st3{display:none;}
	.st4{display:none;fill:#FFFFFF;}
</style>
<g id="box">
	<g>
		<rect class="st0" width="24" height="24"/>
	</g>
</g>
<g id="icon">
	<path d="M19.6,10H14V4.4C14,3.3,13.1,3,12,3c-1.1,0-2,0.3-2,1.4V10H4.4C3.3,10,3,10.9,3,12c0,1.1,0.3,2,1.4,2H10v5.6
		c0,1.1,0.9,1.4,2,1.4c1.1,0,2-0.3,2-1.4V14h5.6c1.1,0,1.4-0.9,1.4-2C21,10.9,20.7,10,19.6,10z"/>
</g>
</svg>
