<svg aria-hidden="true" focusable="false" role="img" xmlns="http://www.w3.org/2000/svg" width="64" height="64"><path fill="none" d="M0 0h64v64H0z"/><path fill="#fff" d="M53.856 14.117a4.786 4.786 0 0 0-3.973-3.973C43.922 9.15 33.986 9.15 32 9.15c-1.986 0-11.922 0-17.883.994a4.786 4.786 0 0 0-3.973 3.973C9.15 20.078 9.15 30.013 9.15 32s0 11.922.994 17.883a4.786 4.786 0 0 0 3.973 3.973c5.961.994 15.897.994 17.883.994 1.986 0 11.922 0 17.883-.994a4.786 4.786 0 0 0 3.973-3.973c.993-5.961.993-15.896.993-17.883 0-5.964 0-11.922-.993-17.883zm-6.463 5.316l-2.125 18.062a2.545 2.545 0 0 1-4.985.375l-1.16-4.239 2.791-5.694c.194-.394-.074-.464-.075-.464L29.206 40.106c-1.443 1.443-3.121.626-4.528-.782-1.41-1.409-2.227-3.088-.783-4.531l9.177-9.177-6.942-1.9a2.546 2.546 0 0 1 .374-4.984l18.062-2.125a2.544 2.544 0 0 1 2.826 2.826z"/></svg>
