<?xml version="1.0" encoding="UTF-8"?>
<svg width="12px" height="12px" viewBox="0 0 12 12" version="1.1" xmlns="http://www.w3.org/2000/svg" xmlns:xlink="http://www.w3.org/1999/xlink">
    <!-- Generator: sketchtool 52.2 (67145) - http://www.bohemiancoding.com/sketch -->
    <title>E4F398F2-21F1-417D-B957-2E8675DEEFED</title>
    <desc>Created with sketchtool.</desc>
    <g id="Visual---KPM" stroke="none" stroke-width="1" fill="none" fill-rule="evenodd">
        <g id="1.A-Startscherm" transform="translate(-766.000000, -174.000000)" fill="#FFFFFF" fill-rule="nonzero">
            <g id="Action-header" transform="translate(0.000000, 62.000000)">
                <g id="Group-8" transform="translate(684.000000, 101.000000)">
                    <g id="Group-7" transform="translate(71.129032, 0.000000)">
                        <g id="3946-interne-link-24px" transform="translate(10.161290, 10.200000)">
                            <g id="Icon" transform="translate(0.564516, 1.133333)">
                                <path d="M5.98387097,5.15666667 L1.24193548,5.66666667 C0.903225806,5.72333333 0.620967742,6.00666667 0.620967742,6.34666667 C0.620967742,6.68666667 0.903225806,6.97 1.24193548,7.02666667 L3.33064516,7.19666667 L0.677419355,9.86 C0.225806452,10.3133333 0.451612903,10.7666667 0.790322581,11.1066667 C1.12903226,11.4466667 1.58064516,11.6733333 2.03225806,11.22 L4.68548387,8.55666667 L4.85483871,10.6533333 C4.91129032,10.9933333 5.19354839,11.2766667 5.53225806,11.2766667 C5.53225806,11.2766667 5.53225806,11.2766667 5.53225806,11.2766667 C5.87096774,11.2766667 6.15322581,10.9933333 6.20967742,10.6533333 L6.71774194,5.89333333 C6.71774194,5.66666667 6.66129032,5.49666667 6.5483871,5.32666667 C6.37903226,5.21333333 6.20967742,5.1 5.98387097,5.15666667 Z M11.233871,0 L2.31451613,0 C1.97580645,0 1.69354839,0.283333333 1.69354839,0.623333333 L1.69354839,3.96666667 L3.38709677,3.96666667 L3.38709677,1.7 L10.1612903,1.7 L10.1612903,8.5 L7.90322581,8.5 L7.90322581,10.2 L11.233871,10.2 C11.5725806,10.2 11.8548387,9.91666667 11.8548387,9.57666667 L11.8548387,0.623333333 C11.8548387,0.283333333 11.5725806,0 11.233871,0 Z" id="Shape"></path>
                            </g>
                        </g>
                    </g>
                </g>
            </g>
        </g>
    </g>
</svg>