<svg width="19" height="19" xmlns="http://www.w3.org/2000/svg"><g fill="none" fill-rule="evenodd"><path d="M-1 .582h20v20H-1z"/><g fill="#FFF" fill-rule="nonzero"><path d="M17.083 2.915H15V1.25c0-.667-.583-.834-1.25-.834s-1.25.167-1.25.834v1.666H6.667V1.25c0-.667-.584-.834-1.25-.834-.667 0-1.25.167-1.25.834v1.666H2.083c-.666 0-1.25.584-1.25 1.25V17.5c0 .666.584 1.25 1.25 1.25h15c.667 0 1.25-.584 1.25-1.25V4.165c0-.666-.583-1.25-1.25-1.25zM2.5 17.082v-10h14.167v10H2.5z"/><path d="M4.166 8.748h2.5v2.5h-2.5zM8.333 8.748h2.5v2.5h-2.5zM12.5 8.748H15v2.5h-2.5zM4.166 12.915h2.5v2.5h-2.5zM8.333 12.915h2.5v2.5h-2.5zM12.5 12.915H15v2.5h-2.5z"/></g></g></svg>