<?xml version="1.0" encoding="utf-8"?>
<svg width="16" height="16" viewBox="0 0 1792 1792" xmlns="http://www.w3.org/2000/svg"><path d="M1280,1120 L1280,288 C1280,244 1264.33333,206.333333 1233,175 C1201.66667,143.666667 1164,128 1120,128 L288,128 C244,128 206.333333,143.666667 175,175 C143.666667,206.333333 128,244 128,288 L128,1120 C128,1164 143.666667,1201.66667 175,1233 C206.333333,1264.33333 244,1280 288,1280 L1120,1280 C1164,1280 1201.66667,1264.33333 1233,1233 C1264.33333,1201.66667 1280,1164 1280,1120 Z M1408,288 L1408,1120 C1408,1199.33333 1379.83333,1267.16667 1323.5,1323.5 C1267.16667,1379.83333 1199.33333,1408 1120,1408 L288,1408 C208.666667,1408 140.833333,1379.83333 84.5,1323.5 C28.1666667,1267.16667 0,1199.33333 0,1120 L0,288 C0,208.666667 28.1666667,140.833333 84.5,84.5 C140.833333,28.1666667 208.666667,0 288,0 L1120,0 C1199.33333,0 1267.16667,28.1666667 1323.5,84.5 C1379.83333,140.833333 1408,208.666667 1408,288 Z"></path>
</svg>
