<?xml version="1.0" encoding="UTF-8"?>
<svg width="24px" height="24px" viewBox="0 0 24 24" version="1.1" xmlns="http://www.w3.org/2000/svg" xmlns:xlink="http://www.w3.org/1999/xlink">
    <!-- Generator: Sketch 63 (92445) - https://sketch.com -->
    <title>Artboard</title>
    <desc>Created with Sketch.</desc>
    <g id="Artboard" stroke="none" stroke-width="1" fill="none" fill-rule="evenodd">
        <g id="icon-print-blue-3" transform="translate(-1.000000, -1.000000)">
            <g id="icon-print-blue-2">
                <g id="icon-print-blue">
                    <polygon id="Path" points="0 0 26 0 26 26 0 26"></polygon>
                    <path d="M8.125,6.09375 L17.46875,6.09375 L17.5313125,6.90625 L19.09375,6.90625 L18.9779688,5.12240625 C18.9779688,4.76165625 18.7533125,4.46875 18.3929688,4.46875 L7.271875,4.46875 C6.91093302,4.46985571 6.61823041,4.76147088 6.61578125,5.12240625 L6.5,6.90625 L8.0624375,6.90625 L8.125,6.09375 Z M22.34375,7.71875 L3.65625,7.71875 C3.20751864,7.71875 2.84375,8.08251864 2.84375,8.53125 L2.84375,15.4375 C2.84375,15.8862314 3.20751864,16.25 3.65625,16.25 L5.477875,16.25 L10.349625,21.2781563 C10.4999375,21.4365938 10.7050937,21.53125 10.96875,21.53125 L20.0659063,21.53125 C20.42625,21.53125 20.71875,21.23875 20.71875,20.8784063 L20.1719375,16.25 L22.34375,16.25 C22.7924814,16.25 23.15625,15.8862314 23.15625,15.4375 L23.15625,8.53125 C23.15625,8.08251864 22.7924814,7.71875 22.34375,7.71875 Z M11.4521875,19.90625 C11.4521875,19.90625 11.18,20.748 11.1345,20.8905938 C11.0894062,21.0327812 11.0069375,21.0327812 10.96875,21.0169375 L10.96875,16.65625 C10.96875,16.4318843 10.7868657,16.25 10.5625,16.25 L7.1036875,16.25 L7.56478125,12.59375 L18.026125,12.59375 L18.8950938,19.90625 L11.4517812,19.90625 L11.4521875,19.90625 Z M21.1245937,10.6275 C20.6399639,10.6275 20.2470938,10.2346299 20.2470938,9.75 C20.2470938,9.26537015 20.6399639,8.8725 21.1245937,8.8725 C21.4380943,8.8725 21.7277808,9.03975054 21.8845311,9.31124999 C22.0412814,9.58274944 22.0412814,9.91725056 21.8845311,10.18875 C21.7277808,10.4602495 21.4380943,10.6275 21.1245937,10.6275 Z" id="Shape" fill="#154273" fill-rule="nonzero"></path>
                </g>
            </g>
        </g>
    </g>
</svg>