<svg id="Icon_trash" data-name="Icon trash" fill="#154273" xmlns="http://www.w3.org/2000/svg" viewBox="0 0 12 15">
  <defs>
    <style>

    </style>
  </defs>
  <path id="Shape" fill="#154273" class="cls-1" d="M9.75,10.5h-9A.751.751,0,0,1,0,9.75V0H10.5V9.75A.751.751,0,0,1,9.75,10.5ZM7.5,1.5V9L9,8.25V1.5Zm-3,0V9L6,8.25V1.5Zm-3,0V9L3,8.25V1.5Z" transform="translate(0.75 4.5)"/>
  <path id="Shape-2" fill="154273" data-name="Shape" class="cls-1" d="M11.25,1.5H9V.75A.75.75,0,0,0,8.25,0H3.75A.75.75,0,0,0,3,.75V1.5H.75A.75.75,0,0,0,0,2.25v1.5H12V2.25A.75.75,0,0,0,11.25,1.5Z"/>
</svg>
