<svg viewBox="0 0 1792 1792" width="16" height="16" xmlns="http://www.w3.org/2000/svg"><g fill="none" fill-rule="evenodd"><path d="M1280 1120V288c0-44-15.667-81.667-47-113s-69-47-113-47H288c-44 0-81.667 15.667-113 47s-47 69-47 113v832c0 44 15.667 81.667 47 113s69 47 113 47h832c44 0 81.667-15.667 113-47s47-69 47-113zm128-832v832c0 79.333-28.167 147.167-84.5 203.5S1199.333 1408 1120 1408H288c-79.333 0-147.167-28.167-203.5-84.5S0 1199.333 0 1120V288c0-79.333 28.167-147.167 84.5-203.5S208.667 0 288 0h832c79.333 0 147.167 28.167 203.5 84.5S1408 208.667 1408 288z" fill-rule="nonzero" fill="#000"/><path d="M171 171h1066v1066H171z"/><path d="M1087.37 307.79c-25.08-18.528-60.051-14.951-80.79 8.242L653.79 710.755 441.707 527.04c-22.432-19.395-55.537-19.657-78.143-.605-22.694 19.026-28.16 51.697-12.973 77.08l256.901 428.763a60.234 60.234 0 0 0 51.459 29.267h.218a60.24 60.24 0 0 0 51.458-28.943l392.32-645.15c16.18-26.596 9.414-61.137-15.578-79.66z" fill-rule="nonzero" fill="#000"/></g></svg>