<svg width="16" height="16" xmlns="http://www.w3.org/2000/svg"><g fill="none" fill-rule="evenodd"><path d="M14.545 12.727V3.273c0-.5-.178-.928-.534-1.284a1.75 1.75 0 0 0-1.284-.534H3.273c-.5 0-.928.178-1.284.534a1.75 1.75 0 0 0-.534 1.284v9.454c0 .5.178.928.534 1.284a1.75 1.75 0 0 0 1.284.534h9.454c.5 0 .928-.178 1.284-.534a1.75 1.75 0 0 0 .534-1.284zM16 3.273v9.454c0 .902-.32 1.673-.96 2.313-.64.64-1.411.96-2.313.96H3.273C2.37 16 1.6 15.68.96 15.04A3.152 3.152 0 0 1 0 12.727V3.273C0 2.37.32 1.6.96.96 1.6.32 2.371 0 3.273 0h9.454c.902 0 1.673.32 2.313.96.64.64.96 1.411.96 2.313z" fill="#000" fill-rule="nonzero"/><path d="M1.943 1.943h12.114v12.114H1.943z"/><path d="M12.356 3.498a.685.685 0 0 0-.918.093L7.43 8.077 5.02 5.989a.684.684 0 0 0-1.035.87l2.92 4.871a.684.684 0 0 0 .584.333h.003c.239 0 .46-.125.584-.329l4.458-7.331a.684.684 0 0 0-.177-.905z" fill="#000" fill-rule="nonzero"/></g></svg>
