<?xml version="1.0" encoding="utf-8"?>
<!-- Generator: Adobe Illustrator 19.1.0, SVG Export Plug-In . SVG Version: 6.00 Build 0)  -->
<svg version="1.2" baseProfile="tiny" xmlns="http://www.w3.org/2000/svg" xmlns:xlink="http://www.w3.org/1999/xlink" x="0px"
	 y="0px" width="64px" height="64px" viewBox="0 0 64 64" xml:space="preserve">
<g id="_x36_4px_Box">
	<rect fill="none" width="64" height="64"/>
</g>
<g id="Icon">
	<path d="M53.9092,10.0908c-5.4545-5.4545-14.3284-5.4545-19.7819,0l-6.3595,6.359c-5.4535,5.4545-5.4535,14.328,0.0005,19.7824
		c1.7939,1.7942,3.9616,2.9765,6.2526,3.5858c-0.3665,1.3038-1.0491,2.5153-2.028,3.4942l-6.3585,6.359
		c-3.117,3.1156-8.1885,3.1175-11.3046,0c-3.1166-3.1166-3.1166-8.1885-0.0005-11.3051l6.359-6.359
		c0.4173-0.4173,0.8716-0.7742,1.3496-1.0797c-0.6045-2.0719-0.7836-4.2397-0.5505-6.3714
		c-1.8377,0.6774-3.5645,1.7389-5.0378,3.2124l-6.3595,6.359C4.6366,39.582,4.6366,48.4555,10.0905,53.91
		c2.7267,2.7272,6.3092,4.0904,9.8912,4.0904s7.1645-1.3631,9.8917-4.0904l6.3585-6.359h-0.0005
		c3.1605-3.1595,4.6265-7.6841,3.922-12.1032c-0.4664-2.9243-1.8222-5.5794-3.922-7.6792
		c-1.3266-1.3266-2.8575-2.3205-4.4911-2.9965c-0.8488,1.4885-0.6769,3.5767-0.2835,5.0994
		c0.2636,1.0204,0.6294,1.5607,0.6705,1.8828c0.0237,0.185-0.1201,0.239-0.1201,0.239c-1.8493-1.8747-2.4226-4.1401-2.3354-6.0467
		c0.0913-1.9941,1.0184-3.9413,2.335-5.258l6.359-6.359c1.5588-1.5583,3.6049-2.3369,5.6521-2.3369
		c2.0466,0,4.0943,0.7796,5.6525,2.3369c3.1166,3.1166,3.1166,8.1885,0,11.3051l-6.3585,6.359
		c-0.4229,0.4227-0.884,0.7829-1.369,1.091c0.5997,2.0543,0.7921,4.2171,0.5556,6.3648c1.8431-0.6769,3.5753-1.7398,5.0526-3.2171
		l6.3585-6.359h-0.0005C59.3636,24.4198,59.3636,15.5443,53.9092,10.0908z"/>
</g>
</svg>
