<svg aria-hidden="true" focusable="false" role="img" width="16" height="16" viewBox="0 0 16 16" xmlns="http://www.w3.org/2000/svg"><path d="M14.545 12.727V3.273c0-.5-.178-.928-.534-1.284a1.75 1.75 0 0 0-1.284-.534H3.273c-.5 0-.928.178-1.284.534a1.75 1.75 0 0 0-.534 1.284v9.454c0 .5.178.928.534 1.284a1.75 1.75 0 0 0 1.284.534h9.454c.5 0 .928-.178 1.284-.534a1.75 1.75 0 0 0 .534-1.284zM16 3.273v9.454c0 .902-.32 1.673-.96 2.313-.64.64-1.411.96-2.313.96H3.273C2.37 16 1.6 15.68.96 15.04A3.152 3.152 0 0 1 0 12.727V3.273C0 2.37.32 1.6.96.96 1.6.32 2.371 0 3.273 0h9.454c.902 0 1.673.32 2.313.96.64.64.96 1.411.96 2.313z"/></svg>
