<?xml version="1.0" encoding="utf-8"?>
<!-- Generator: Adobe Illustrator 17.1.0, SVG Export Plug-In . SVG Version: 6.00 Build 0)  -->
<svg version="1.2" baseProfile="tiny" xmlns="http://www.w3.org/2000/svg" xmlns:xlink="http://www.w3.org/1999/xlink" x="0px"
	 y="0px" width="64px" height="64px" viewBox="0 0 64 64" xml:space="preserve">
<g id="_x36_4px_Boxes">
	<rect fill="none" width="64" height="64"/>
</g>
<g id="Production">
	<g>
		<path d="M20,15h23l0.1539,2H47l-0.2853-4.3911c0-0.8882-0.5527-1.6089-1.4395-1.6089H17.8996
			c-0.8838,0-1.6143,0.7246-1.6143,1.6089L16,17h3.8461L20,15z"/>
		<path d="M55,19H9c-1.1045,0-2,0.8955-2,2v17c0,1.1045,0.8955,2,2,2h4.4839l11.9917,12.3774C25.8455,52.7665,26.3508,53,27,53
			h22.3926C50.2803,53,51,52.2793,51,51.3926L49.6541,40H55c1.1045,0,2-0.8955,2-2V21C57,19.8955,56.1045,19,55,19z M28.1895,49
			c0,0-0.6697,2.072-0.7812,2.4227c-0.1114,0.3507-0.3146,0.3507-0.4083,0.3116V49v-2.1304V41c0-0.5522-0.4473-1-1-1h-8.5137
			l1.1348-9h25.751l2.1386,18H28.1895z M51.9989,26.16c-1.1929,0-2.1589-0.9671-2.1589-2.16c0-1.1934,0.966-2.16,2.1589-2.16
			c1.194,0,2.1611,0.9666,2.1611,2.16C54.16,25.1929,53.1929,26.16,51.9989,26.16z"/>
	</g>
</g>
</svg>
