<svg aria-hidden="true" focusable="false" role="img" xmlns="http://www.w3.org/2000/svg" width="64" height="64"><path fill="none" d="M0 0h64v64H0z"/><path d="M42 27.95V11.835c0-.279-.11-.546-.308-.743l-7.785-7.784A1.05 1.05 0 0 0 33.166 3H22.05C21.47 3 21 3.47 21 4.05v23.9c0 .58.47 1.05 1.05 1.05h18.9c.578 0 1.05-.473 1.05-1.05zM39 26H24V6h9v5a1 1 0 0 0 1 1h5v14zM13.908 34.308a1.05 1.05 0 0 0-.743-.308H2.05C1.47 34 1 34.47 1 35.05v23.9c0 .58.47 1.05 1.05 1.05h18.9c.578 0 1.05-.473 1.05-1.05V42.835c0-.279-.11-.546-.308-.743l-7.784-7.784zM19 57H4V37h9v5a1 1 0 0 0 1 1h5v14zM61.692 42.092l-7.784-7.785a1.05 1.05 0 0 0-.743-.307H42.05c-.58 0-1.05.47-1.05 1.05v23.9c0 .58.47 1.05 1.05 1.05h18.9c.577 0 1.05-.473 1.05-1.05V42.835c0-.279-.11-.546-.308-.743zM59 57H44V37h9v5a1 1 0 0 0 1 1h5v14zM33 31h-3v9.169l-6 3.75v3.537l7.5-4.687 7.5 4.687V43.92l-6-3.75z"/></svg>
