<?xml version="1.0" encoding="utf-8"?>
<!-- Generator: Adobe Illustrator 19.1.0, SVG Export Plug-In . SVG Version: 6.00 Build 0)  -->
<svg version="1.2" baseProfile="tiny" xmlns="http://www.w3.org/2000/svg" xmlns:xlink="http://www.w3.org/1999/xlink" x="0px"
	 y="0px" width="64px" height="64px" viewBox="0 0 64 64" xml:space="preserve">
<g id="Box">
	<rect fill="none" width="64" height="64"/>
</g>
<g id="Icon">
	<path d="M48,42c-2.0453,0-3.925,0.6902-5.4365,1.8396L23.9216,33.1293C23.9681,32.7585,24,32.3834,24,32
		c0-2.1265-0.7417-4.0774-1.9749-5.6176c0.088-0.0801,0.3091-0.0949,0.5178,0.0372c0.3777,0.239,1.7794,1.2736,3.3231,3.4009
		l16.7125-9.6489C44.0875,21.3142,45.9614,22,48,22c4.9706,0,9-4.0295,9-9c0-4.9706-4.0294-9-9-9c-4.9705,0-9,4.0294-9,9
		c0,0.377,0.0306,0.7462,0.0756,1.111L20.4613,24.8581C18.9457,23.6974,17.0565,23,15,23c-4.9705,0-9,4.0294-9,9
		c0,4.9705,4.0295,9,9,9c2.0319,0,3.9001-0.6814,5.4066-1.8171l18.6661,10.7249C39.0292,50.2665,39,50.6295,39,51
		c0,4.9705,4.0295,9,9,9c4.9706,0,9-4.0295,9-9C57,46.0294,52.9706,42,48,42z"/>
</g>
</svg>
