<?xml version="1.0" encoding="UTF-8"?>
<svg width="38px" height="32px" viewBox="0 0 38 32" version="1.1" xmlns="http://www.w3.org/2000/svg" xmlns:xlink="http://www.w3.org/1999/xlink">
    <!-- Generator: Sketch 46.2 (44496) - http://www.bohemiancoding.com/sketch -->
    <title>4068 24 uur zorg</title>
    <desc>Created with Sketch.</desc>
    <defs></defs>
    <g id="Page-1" stroke="none" stroke-width="1" fill="none" fill-rule="evenodd">
        <g id="4068-24-uur-zorg" transform="translate(16.000000, 25.000000) scale(-1, 1) translate(-16.000000, -25.000000) translate(-16.000000, -7.000000)">
            <g id="Box">
                <rect id="Rectangle-path" x="0" y="0" width="64" height="64"></rect>
            </g>
            <g id="Icon" transform="translate(10.000000, 7.000000)" fill-rule="nonzero" fill="#000000">
                <g id="Group">
                    <path d="M22.5618,15.5875 L22.1186,9.3865 C22.0689,8.9466 21.7622,8.6257 21.3241,8.6257 C20.886,8.6257 20.5627,8.9107 20.5305,9.3865 L20,16.6858 C20,17.3693 20.5226,17.9313 21.1896,17.9993 C21.2292,18.0218 28.2138,17.5007 28.2138,17.5007 C28.6728,17.4562 29.0083,17.2625 29.0083,16.8244 C29.0083,16.3868 28.7024,16.1818 28.2138,16.1487 C28.2133,16.1487 28.233,16.1487 28.233,16.1487 L22.5618,15.5875 Z" id="Shape"></path>
                    <path d="M2.1594,17.4662 L4.9355,16.3021 C4.9355,16.3021 5.0822,14.6582 5.9453,13.1045 C6.1255,12.78 6.2798,12.8854 6.2798,12.8854 C5.304,17.9572 6.752,23.3966 10.6695,27.314 C16.9179,33.5624 27.0485,33.5623 33.2969,27.314 C39.5453,21.0656 39.5453,10.9349 33.2969,4.6866 C28.0497,-0.5607 20.059,-1.4068 13.944,2.1742 C13.0356,2.7061 11.7523,3.5817 13.2085,5.5955 C14.3471,7.17 15.0152,7.0755 15.995,6.587 C16.2477,6.4609 16.6419,6.2564 16.9255,6.111 C21.0985,3.9704 26.3438,4.649 29.8392,8.1444 C34.1779,12.4831 34.1779,19.5176 29.8392,23.8563 C25.5005,28.195 18.466,28.195 14.1273,23.8563 C12.093,21.8219 11.0226,19.1961 10.8993,16.5332 L14.2136,18.9871 C14.8122,19.4303 15.633,19.3932 16.171,18.8985 C16.7097,18.4038 16.8141,17.5896 16.4206,16.9581 L10.5524,7.5247 C10.301,7.1203 9.8805,6.8501 9.4113,6.7909 C8.9421,6.7316 8.4757,6.89 8.1456,7.221 L0.4403,14.9418 C0.1901,15.1922 0.0447,15.5134 0.009,15.848 C-0.0291,16.2038 0.0568,16.5752 0.2731,16.8925 C0.692,17.508 1.4829,17.7485 2.1594,17.4662 Z" id="Shape"></path>
                </g>
            </g>
        </g>
    </g>
</svg>