<svg version="1.2" aria-hidden="true" focusable="false" role="img" xmlns="http://www.w3.org/2000/svg" width="64" height="64"><g fill="#154273"><path d="M54 49V15l1.705-7.955c.608-2.837-1.912-5.358-4.75-4.75L43 4s-5.379-1-11.077-1C25.995 3 21 4 21 4l-7.955-1.705c-2.838-.608-5.358 1.913-4.75 4.75L10 15v34l-1.705 7.955c-.608 2.837 1.912 5.358 4.75 4.75.17-.037 7.893-1.705 8.067-1.705 3.448.646 7.067 1 10.811 1C37.643 61 43 60 43 60l7.955 1.705c2.837.608 5.358-1.912 4.75-4.75L54 49zm-5 6H15V9h34v46z"/><path d="M47 11H17v42h30V11zm-4.099 21.529c.957.958 1.27 1.693.956 2.235-.189.33-.56.497-1.102.497-.354 0-.794-.07-1.31-.208.35 1.307.252 2.1-.29 2.414a.887.887 0 0 1-.448.116c-.191 0-.713 0-1.787-1.073-.212.788-.64 1.946-1.457 1.946-.639 0-1.138-.637-1.49-1.896-.594.589-1.48 1.322-2.202.907-.67-.387-.507-1.489-.324-2.24-.016-.064-.082-.154-.418-.003-1 .452-2.263 2.667-1.06 4.12.513.62 1.632 1.07 2.923.482.606.84 1.377 1.27 2.317 1.27a2.61 2.61 0 0 0 1.752-.66c.022.266.039.535.039.814 0 3.618-4 8.75-4 8.75h-6s-4-5.066-4-8.75c0-1.274.241-2.41.554-3.357-.58.566-1.459 1.294-2.162.889-.543-.314-.64-1.107-.29-2.414-1.306.349-2.098.256-2.413-.289-.312-.543 0-1.278.957-2.235-1.307-.351-1.946-.831-1.946-1.458 0-.626.639-1.106 1.946-1.457-.957-.957-1.27-1.692-.958-2.234.317-.547 1.108-.64 2.415-.29-.35-1.307-.253-2.1.29-2.414.293-.17.635-.138.947-.007.15-.184.314-.373.504-.573-1.758-.349-2.633-.893-2.668-1.653-.036-.76.785-1.382 2.503-1.893-1.348-1.18-1.835-2.088-1.485-2.765.35-.677 1.392-.796 3.115-.386-.578-1.697-.545-2.727.096-3.138.622-.397 1.587-.01 2.89 1.222.35-1.758.893-2.633 1.654-2.669h.002c.781.008 1.392.83 1.89 2.504 1.406-1.603 2.08-1.596 2.322-1.593.16.002.308.038.442.107.678.35.806 1.373.388 3.116 1.689-.572 2.727-.545 3.138.095.41.64.01 1.59-1.222 2.891 1.758.348 2.633.892 2.668 1.653.033.683-.633 1.254-2.014 1.733.129.271.248.595.353.986l.008.008c1.071-1.069 1.592-1.07 1.783-1.07.163 0 .315.04.448.117.543.314.639 1.106.29 2.415 1.309-.35 2.099-.258 2.413.289.314.541 0 1.276-.957 2.234 1.308.351 1.947.832 1.947 1.458s-.639 1.106-1.947 1.457z"/><path d="M27.148 31.513c-.596-.309-.766-1.14-.514-2.523a3.431 3.431 0 0 0-2.992 3.396 3.442 3.442 0 0 0 6.884 0 3.41 3.41 0 0 0-.79-2.17c-1.097 1.191-1.975 1.614-2.588 1.297zM39.02 28.035c-.243.103-.55.153-.923.15-.453-.005-1.007-.085-1.653-.24.578 1.698.545 2.729-.097 3.14-.51.325-1.269.108-2.257-.677a3.442 3.442 0 1 0 6.815.681 3.43 3.43 0 0 0-1.885-3.053z"/><circle cx="31.377" cy="23.33" r="4"/></g></svg>
