<?xml version="1.0" encoding="utf-8"?>
<!-- Generator: Adobe Illustrator 18.1.0, SVG Export Plug-In . SVG Version: 6.00 Build 0)  -->
<svg version="1.2" baseProfile="tiny" xmlns="http://www.w3.org/2000/svg" xmlns:xlink="http://www.w3.org/1999/xlink" x="0px"
	 y="0px" width="64px" height="64px" viewBox="0 0 64 64" xml:space="preserve">
<g id="_x36_4px_Boxes">
	<rect fill="none" width="64" height="64"/>
</g>
<g id="Label">
</g>
<g id="Production">
	<g>
		<path fill="#fff" d="M54,49V32V15l1.7047-7.9554c0.608-2.8371-1.9122-5.3573-4.7493-4.7493L43,4c0,0-5.3788-1-11.077-1C25.9951,3,21,4,21,4
			l-7.9554-1.7047c-2.8371-0.608-5.3573,1.9122-4.7493,4.7493L10,15v17v17l-1.7047,7.9554
			c-0.608,2.8371,1.9122,5.3573,4.7493,4.7493C13.2155,61.6681,20.9376,60,21.1123,60c3.4475,0.6461,7.0671,1,10.8107,1
			C37.6436,61,43,60,43,60l7.9554,1.7047c2.8371,0.608,5.3573-1.9122,4.7493-4.7493L54,49z M49,55H15V9h34V55z"/>
		<path fill="#fff" d="M47,11H17v42h30V11z M42.9014,32.5288c0.957,0.958,1.2695,1.6929,0.9561,2.2354
			c-0.1895,0.3291-0.5605,0.4966-1.1025,0.4966c-0.3545,0-0.7939-0.0698-1.3105-0.208c0.3496,1.3076,0.2529,2.1006-0.2891,2.4141
			c-0.1338,0.0771-0.2852,0.1162-0.4482,0.1162c-0.1914,0-0.7129,0-1.7871-1.0732c-0.2118,0.7883-0.6407,1.9463-1.457,1.9463
			c-0.6387,0-1.1377-0.6367-1.4893-1.896c-0.5948,0.5887-1.4804,1.3219-2.2031,0.9067c-0.6696-0.3873-0.5068-1.4888-0.3241-2.2404
			c-0.0152-0.063-0.0818-0.1539-0.4175-0.0024c-1.0004,0.4515-2.2633,2.6666-1.0602,4.1198
			c0.5135,0.6202,1.6321,1.0705,2.9235,0.4818c0.6053,0.8405,1.3763,1.2699,2.3168,1.2699c0.6711,0,1.2517-0.2288,1.7516-0.6589
			C38.9827,40.7023,39,40.9715,39,41.25c0,3.6184-4,8.75-4,8.75h-6c0,0-4-5.0658-4-8.75c0-1.2743,0.2411-2.4101,0.5541-3.3569
			c-0.5804,0.5663-1.4591,1.2938-2.1616,0.8887c-0.543-0.3135-0.6396-1.1064-0.29-2.4141
			c-1.3066,0.3491-2.0986,0.2563-2.4131-0.2886c-0.3125-0.543,0-1.2778,0.957-2.2354c-1.3076-0.3511-1.9463-0.8311-1.9463-1.4575
			c0-0.626,0.6387-1.106,1.9463-1.457c-0.957-0.9575-1.2705-1.6924-0.958-2.2344c0.3164-0.5464,1.1074-0.6392,2.4141-0.2896
			c-0.3496-1.3076-0.2529-2.1006,0.29-2.4141c0.2936-0.1693,0.6352-0.1378,0.9478-0.0068c0.1505-0.184,0.3138-0.3732,0.5038-0.5737
			c-1.7582-0.3484-2.6334-0.8923-2.6685-1.6525c-0.0359-0.7597,0.785-1.3825,2.5034-1.8929
			c-1.3481-1.1802-1.8347-2.0886-1.4848-2.7647c0.3489-0.6771,1.3922-0.796,3.1146-0.3869c-0.578-1.6965-0.5447-2.727,0.0963-3.1378
			c0.6223-0.3964,1.5871-0.0093,2.8907,1.2222c0.3484-1.7582,0.8918-2.6334,1.653-2.6689c0,0,0.001,0.0001,0.002,0.0001
			c0.7812,0.0082,1.3918,0.8295,1.8899,2.5038c1.4065-1.6025,2.0812-1.5955,2.3224-1.593c0.1592,0.0016,0.3082,0.0378,0.4423,0.1071
			c0.6771,0.3499,0.8051,1.3728,0.3874,3.1156c1.6887-0.5718,2.7275-0.5443,3.1378,0.0953
			c0.4113,0.6406,0.0107,1.5906-1.2217,2.8912c1.7582,0.348,2.6334,0.8918,2.6684,1.6525c0.0323,0.6831-0.6337,1.2544-2.0146,1.733
			c0.1293,0.2714,0.248,0.5955,0.3537,0.9866c0.0023,0.0026,0.0053,0.0054,0.0076,0.0081c1.0712-1.0689,1.5919-1.0695,1.7831-1.0695
			c0.1631,0,0.3145,0.0391,0.4482,0.1162c0.543,0.3135,0.6387,1.1064,0.2891,2.4146c1.3096-0.3501,2.0996-0.2573,2.4141,0.2891
			c0.3135,0.5415,0,1.2764-0.957,2.2344c1.3076,0.3511,1.9463,0.8315,1.9463,1.4575S44.209,32.1777,42.9014,32.5288z"/>
		<path fill="#fff" d="M27.1476,31.5129c-0.5961-0.3085-0.7656-1.1398-0.5133-2.5231c-1.686,0.2226-2.9918,1.6498-2.9918,3.3966
			c0,1.9009,1.541,3.442,3.442,3.442c1.901,0,3.442-1.5411,3.442-3.442c0-0.8275-0.304-1.5766-0.7906-2.1703
			C28.6389,31.407,27.7614,31.8297,27.1476,31.5129z"/>
		<path fill="#fff" d="M39.02,28.0355c-0.2431,0.1024-0.5506,0.1527-0.9229,0.1488c-0.4531-0.0048-1.007-0.0848-1.6528-0.2385
			c0.5779,1.6975,0.5447,2.728-0.0973,3.1383c-0.5109,0.3259-1.269,0.1091-2.2573-0.6765c-0.0443,0.2204-0.0687,0.448-0.0687,0.6815
			c0,1.9009,1.541,3.442,3.442,3.442c1.901,0,3.442-1.541,3.442-3.442C40.9049,29.7516,40.1342,28.6053,39.02,28.0355z"/>
		<circle fill="#fff" cx="31.3767" cy="23.33" r="4"/>
	</g>
</g>
</svg>
