<?xml version="1.0" encoding="utf-8"?>
<!-- Generator: Adobe Illustrator 17.1.0, SVG Export Plug-In . SVG Version: 6.00 Build 0)  -->
<svg version="1.2" baseProfile="tiny" xmlns="http://www.w3.org/2000/svg" xmlns:xlink="http://www.w3.org/1999/xlink" x="0px"
	 y="0px" width="64px" height="64px" viewBox="0 0 64 64" xml:space="preserve">
<g id="_x36_4px_Boxes">
	<rect fill="none" width="64" height="64"/>
</g>
<g id="Icon">
	<g>
		<path fill="#154273" d="M52.6721,32.9338L51,2c0-1.1046-2.2386-2-5-2s-5,0.8954-5,2l-1.0183,20.1597c2.1652,2.0896,4.6332,4.5406,4.7766,4.68
			c0.2523,0.2452,0.0237,0.4298,0.0237,0.4298l-15.2897-8.7001C28.8257,18.1924,28,18.6741,28,19.4399v4.8572l-10.5197-5.7609
			C16.8139,18.1712,16,18.6535,16,19.4133v4.8617l-0.0399-0.012L5.4796,18.5343C4.8133,18.17,4,18.6523,4,19.4117v2.7031v2.3624V52
			h29v-8.4513C33,37.4208,40.3086,32.8,50.001,32.8C50.9168,32.8,51.8031,32.8539,52.6721,32.9338z M15,44H9v-6h6V44z M27,44h-6v-6
			h6V44z"/>
		<path fill="#154273" d="M50.0013,55C57.8511,55,64,51.6253,64,47.3214c0-0.6324,0-3.0202,0-3.6548C64,39.3673,57.8511,36,50.0013,36
			C42.1492,36,36,39.3673,36,43.6666c0,0.6346,0,3.0225,0,3.6548c0,0.9493,0.3142,1.8492,0.865,2.6819
			C36.312,50.8288,36,51.7224,36,52.6666v3.6548C36,60.6253,42.1492,64,50.0013,64C57.8511,64,64,60.6253,64,56.3214v-3.6548
			c0-0.2049-0.0266-0.4056-0.0542-0.606c-0.7144,0.8958-4.5718,5.1376-13.6127,5.1376c-8.0173,0-10.7806-3.8577-11.0668-4.3807
			c-0.1169-0.2137-0.2019-0.4362-0.0765-0.5667C41.7381,53.9397,45.6016,55,50.0013,55z M38.7012,44
			c0-2.8444,5.0601-5.15,11.302-5.15s11.302,2.3057,11.302,5.15c0,2.8443-5.0601,5.15-11.302,5.15S38.7012,46.8443,38.7012,44z"/>
		<path fill="#154273" d="M47.8543,45.7261v0.6766h1.5551v-0.5565c0.3053,0.0191,0.6703,0.0191,1.016,0.0191h0.384v0.5374h1.5168v-0.6166
			c2.7834-0.2999,4.1094-1.2643,4.1094-2.6701c0-0.5469-0.0571-0.7845-0.3076-1.3435h-2.0559
			c0.2123,0.5182,0.2886,0.7773,0.2886,1.2546c0,0.6166-0.5938,1.1155-2.0344,1.334v-1.7634h-1.5168v1.8928
			c-0.1907,0.0096-0.384,0.0193-0.6128,0.0193c-0.2697,0-0.52-0.0098-0.7872-0.0193v-1.8928h-1.5551v1.7538
			c-1.4023-0.2089-2.1322-0.6575-2.1322-1.3748c0-0.4078,0.0763-0.6454,0.2479-1.1539h-2.168
			c-0.174,0.4269-0.2312,0.7269-0.2312,1.1226C43.5708,44.3611,45.0113,45.3662,47.8543,45.7261z"/>
	</g>
</g>
</svg>
