<?xml version="1.0" encoding="utf-8"?>
<!-- Generator: Adobe Illustrator 17.1.0, SVG Export Plug-In . SVG Version: 6.00 Build 0)  -->
<svg version="1.2" baseProfile="tiny" xmlns="http://www.w3.org/2000/svg" xmlns:xlink="http://www.w3.org/1999/xlink" x="0px"
	 y="0px" width="64px" height="64px" viewBox="0 0 64 64" xml:space="preserve">
<g id="_x36_4px_Boxes">
	<rect fill="none" width="64" height="64"/>
</g>
<g id="Icon">
	<path fill="#154273" d="M61.6577,25.567l-29.0437-9.369c-0.3992-0.1288-0.8288-0.1288-1.228,0L2.3423,25.567
		c-0.4482,0.1446-0.4662,0.7721-0.027,0.9421L8,28.7097v7.0689C7.3904,36.3277,7,37.115,7,38c0,0.7645,0.2948,1.4546,0.7656,1.9844
		c-1.4338,2.2515-3.1959,6.0468-3.295,7.7803C4.353,49.8235,7,50.6831,8.2941,50.9184S12.647,51,12.9412,48.4706
		C13.17,46.5022,12.368,42.1364,12,40.2912v-0.0698c0.6096-0.5491,1-1.3364,1-2.2214s-0.3904-1.6723-1-2.2214v-5.5205
		l15.6912,6.0844c-0.0007,0.0632-0.0331,0.2836-0.3839,0.2636L16,34.8051v10.1261h0.0082C16.0076,44.955,16,44.976,16,45
		c0,3.866,7.1635,7,16,7s16-3.134,16-7c0-0.024-0.0076-0.045-0.0082-0.0688H48V31.8065l13.6847-5.2973
		C62.124,26.3391,62.106,25.7116,61.6577,25.567z"/>
</g>
</svg>
