<?xml version="1.0" encoding="utf-8"?>
<!-- Generator: Adobe Illustrator 17.1.0, SVG Export Plug-In . SVG Version: 6.00 Build 0)  -->
<svg version="1.2" baseProfile="tiny" xmlns="http://www.w3.org/2000/svg" xmlns:xlink="http://www.w3.org/1999/xlink" x="0px"
	 y="0px" width="64px" height="64px" viewBox="0 0 64 64" xml:space="preserve">
<g id="_x36_4px_Boxes">
	<rect fill="none" width="64" height="64"/>
</g>
<g id="Icon">
	<path fill="#fff" d="M32,56c13.2549,0,24-10.7451,24-24S45.2549,8,32,8S8,18.7451,8,32S18.7451,56,32,56z M46.0365,46.3713l-0.7854-1.7297
		l1.7733-3.2125l2.8746-0.3114C48.8978,43.0749,47.5946,44.8493,46.0365,46.3713z M34.3491,12.0413
		c8.7745,1.0272,15.829,7.7189,17.4114,16.3142l-2.2471,2.9958l-2.5946,1.2973l-2.5946-2.5946l-1.3899-2.502
		c0,0,1.7938-1.7962,1.2973-2.7483c-0.4965-0.9522-3.3007,0.5977-3.8552-0.2362c-0.5545-0.8343-0.0608-3.6824-0.0608-3.6824
		l-3.477-1.4318c0,0-1.0862-0.021-0.9952,0.7982c0.1022,0.9204,2.6313,2.3796,2.4269,2.7887
		c-0.1885,0.3773-0.8181,0.1024-0.8181,0.1024l-0.9614,1.6871l-2.0043-0.4513c0,0,1.5238-0.5777,1.7093-1.1336
		c0.1854-0.556-2.2499-2.5566-2.2499-2.5566l-1.3575,0.3068l-0.6136,2.4544l-1.6362,1.4317l-2.1453-0.0162l0.1911-1.189
		l-0.7856-0.0221l1.0228-2.6513l2.1064,0.1757c0,0,0.7776-2.0316,0.6234-2.7001c-0.2993-1.2973-1.6524-1.4439-1.6524-1.9554
		c0-0.5113,1.4578-0.5036,2.1738-1.2195C32.3167,14.8591,33.5082,13.2212,34.3491,12.0413z M27.3466,12.4574
		c1.2131-0.289,2.4671-0.4626,3.7535-0.5198l0.1864,0.3024c0,0-0.4618,2.4305-1.2324,2.6357
		c-0.7706,0.2054-2.9891-1.073-2.9891-1.073L27.3466,12.4574z M26.2395,29.8486c1.0194-2.1066,2.5651-2.3214,2.5651-2.3214
		l5.3747-1.0796l3.0771,1.8018l4.1028,0.7807l1.136,1.5557l1.8291,2.5816l2.5946,1.3518l2.5946-2.2133
		c0,0-0.256,3.1039-1.2786,5.0413c-1.0227,1.9373-3.6762,3.3902-3.6762,3.3902s-0.2525,1.8223-1.1105,3.3513
		c-0.3324,0.5925-1.2437,0.9086-1.6508,1.4919c-0.7348,1.0533-0.5262,2.9067-1.365,3.3187
		c-1.4988,0.7361-3.2421,1.0782-3.6512,0.6907c-0.5724-0.5423-1.8379-2.8582-1.8379-3.6252v-5.5325
		c0-0.9923-1.3255-3.3427-1.3255-3.3427s-3.1374-0.0292-4.3421-0.0292c-1.2047,0-3.0362-1.729-3.0362-1.729
		S25.2202,31.955,26.2395,29.8486z M23.2303,13.9332l-2.3314,4.2749c0,0-2.7457,3.5789-4.6652,5.5162
		c-0.8819,0.8901-2.1922,1.584-3.3535,2.0768C14.5768,20.5821,18.3561,16.3092,23.2303,13.9332z M18.3784,42.2659
		c0,1.664,0,3.2321,0,4.4827c-3.3008-3.0511-5.5711-7.1834-6.2509-11.8363C14.3933,36.4285,18.3784,39.487,18.3784,42.2659z"/>
</g>
</svg>
