<svg version="1.2" aria-hidden="true" focusable="false" role="img" xmlns="http://www.w3.org/2000/svg" width="64" height="64"><path fill="#154273" d="M32 56c13.255 0 24-10.745 24-24S45.255 8 32 8 8 18.745 8 32s10.745 24 24 24zm14.036-9.629l-.785-1.73 1.773-3.212 2.875-.311a20.194 20.194 0 0 1-3.863 5.253zM34.35 12.041c8.775 1.027 15.83 7.72 17.412 16.314l-2.248 2.996-2.594 1.298-2.595-2.595-1.39-2.502s1.794-1.796 1.298-2.748c-.497-.952-3.301.597-3.856-.236-.554-.835-.06-3.683-.06-3.683l-3.477-1.432s-1.087-.02-.996.799c.103.92 2.632 2.38 2.427 2.788-.188.378-.818.103-.818.103l-.961 1.687-2.004-.452s1.523-.577 1.709-1.133c.185-.556-2.25-2.557-2.25-2.557l-1.358.307-.613 2.454-1.636 1.432-2.146-.016.191-1.19-.785-.021 1.023-2.651 2.106.175s.778-2.031.623-2.7c-.299-1.297-1.652-1.444-1.652-1.955 0-.512 1.458-.504 2.174-1.22.444-.444 1.635-2.082 2.476-3.262zm-7.002.416a20.015 20.015 0 0 1 3.753-.52l.186.303s-.461 2.43-1.232 2.636c-.77.205-2.989-1.073-2.989-1.073l.282-1.346zM26.239 29.85c1.02-2.107 2.566-2.322 2.566-2.322l5.374-1.08 3.077 1.802 4.103.781 1.136 1.556 1.83 2.581 2.594 1.352 2.595-2.213s-.257 3.104-1.28 5.041c-1.022 1.937-3.675 3.39-3.675 3.39s-.253 1.823-1.11 3.352c-.333.592-1.244.908-1.652 1.492-.734 1.053-.526 2.906-1.365 3.318-1.498.736-3.242 1.079-3.65.691-.573-.542-1.839-2.858-1.839-3.625v-5.533c0-.992-1.325-3.342-1.325-3.342s-3.138-.03-4.342-.03c-1.205 0-3.036-1.729-3.036-1.729s-1.02-3.376 0-5.482zM23.23 13.933L20.9 18.208s-2.746 3.579-4.665 5.516c-.882.89-2.192 1.584-3.354 2.077 1.697-5.219 5.476-9.492 10.35-11.868zm-4.852 28.333v4.483a20.054 20.054 0 0 1-6.25-11.837c2.265 1.517 6.25 4.575 6.25 7.354z"/></svg>
