<?xml version="1.0" encoding="utf-8"?>
<!-- Generator: Adobe Illustrator 17.1.0, SVG Export Plug-In . SVG Version: 6.00 Build 0)  -->
<svg version="1.2" baseProfile="tiny" xmlns="http://www.w3.org/2000/svg" xmlns:xlink="http://www.w3.org/1999/xlink" x="0px"
	 y="0px" width="64px" height="64px" viewBox="0 0 64 64" xml:space="preserve">
<g id="_x36_4px_Boxes">
	<rect fill="none" width="64" height="64"/>
</g>
<g id="Icon">
	<g>
		<path fill="#fff" d="M29.0046,51.115c-1.9444,0.7894-3.7958,1.2825-5.0046,1.2825c-3.0511,0-10.1877-3.0848-12.6357-6.3633
			c4.062-1.4019,7.0549-2.4515,7.3857-4.6064c0.2239-1.9794,0.4598-3.9515,0.6181-5.2552c-0.6524-0.6334-1.2234-1.3078-1.7263-2.006
			c-0.0262-0.0363-0.0544-0.072-0.0803-0.1085c-0.1494-0.2112-0.2905-0.4252-0.4272-0.6404
			c-0.9813-1.5435-1.6214-3.1646-1.9861-4.7081c5.8372-1.1196,11.8809-1.1185,17.7184,0.0031
			c-1.049,4.4854-4.0629,9.2874-8.8668,9.2874c-1.121,0-2.2395-0.1949-3.0544-0.5815c0.3702,0.8859,1.1844,1.7314,3.2859,2.2553
			c5.199,1.2946,6.8121-2.8912,9.5482-4.2861c0.7391-0.3768,2.3348-0.957,4.5383-1.3159c-0.5508-1.8423-1.5433-3.4828-2.1671-5.099
			c0.8004-0.3162,1.399-1.0394,1.5343-1.9496l1.2872-8.467c0.1623-1.0977-0.4037-2.1484-1.3523-2.6205
			c0.0348-3.5634-0.4616-6.4661-2.7573-7.842C32.1123,6.4452,29.02,7.1855,29.02,7.1855s-2.9731-3.7931-8.1729-2.8136
			c-5.5339,1.0428-8.7467,5.4538-9.8339,11.3482c-0.0626,0.0169-0.1266,0.0279-0.1892,0.045
			c-1.2104,0.332-1.9827,1.5312-1.7964,2.791l1.2872,8.467c0.155,1.0432,0.9183,1.8369,1.8964,2.057
			c-1.0339,2.7988-3.994,5.5724-2.697,9.4902c0.3756,1.1346,2.068,2.3345,4.2575,3.3895c-0.4939,0.205-1.0948,0.4368-1.8469,0.7023
			c-2.0544,0.7242-6.0527,1.86-7.7134,3.5957C1.9303,48.6426,0.4341,56.7561,0,60h33.8302
			C30.8909,58.4565,29.039,55.2302,29.0046,51.115z M13.0134,25.2025L12.79,23.6828c2.7266-1.4611,8.2126-2.3074,8.2126-2.3074
			c0.0037-0.0599-0.0119-0.2706-0.345-0.2757c0,0-2.8392-0.4636-8.1561,0.6202l-0.3421-2.3277
			c-0.0762-0.5126,0.2457-1.0074,0.7439-1.1286c7.2659-1.7665,14.9275-1.7665,22.1934,0c0.4982,0.1212,0.8201,0.616,0.7439,1.1286
			L35.62,20.893c-2.6028-0.9282-4.8683-0.8817-4.8683-0.8817c-0.3311-0.0364-0.3728,0.1707-0.3766,0.2305
			c0,0,2.6736,0.5641,5.0601,1.9083l-0.4486,3.0522c-0.084,0.5654-0.6167,0.9352-1.171,0.8237
			c-3.2292-0.6492-6.5238-0.9778-9.8153-0.9778c-3.2919,0-6.5866,0.3286-9.8158,0.9778
			C13.6301,26.1376,13.0974,25.7679,13.0134,25.2025z"/>
		<path fill="#fff" d="M63.8965,50.7148l-3.6453-9.555c0.0017,0.0007,0.004,0.0015,0.0057,0.0023c0.7617,0.3271,1.6431-0.0244,1.9707-0.7852
			c0.3271-0.7607-0.0229-1.6426-0.7832-1.9697c-0.4395-0.1895-4.373-1.8359-7.0854-1.3008
			c-1.3598,0.2668-2.3583,0.6855-3.5975,1.0665C50.9146,37.8126,51,37.4163,51,37c0-1.6569-1.3431-3-3-3s-3,1.3431-3,3
			c0,0.4163,0.0854,0.8126,0.2386,1.173c-1.2391-0.381-2.2377-0.7997-3.597-1.0665c-2.7173-0.5332-6.6465,1.1113-7.0859,1.3008
			c-0.7607,0.3281-1.1113,1.21-0.7832,1.9707c0.325,0.7545,1.1935,1.1035,1.9498,0.7902l-3.6422,9.5468
			c-0.0645,0.1445-0.0801,0.4414-0.0626,0.764C32.1981,55.8218,34.8033,58,38,58c3.174,0,5.7723-2.1407,5.9858-6.422
			c0.0126-0.2524,0.0359-0.5128-0.0894-0.8632l-4.0747-10.6805c0.4564-0.0474,0.8862-0.0542,1.2402,0.0155
			c1.6536,0.3247,2.9037,1.0156,4.938,1.3868V59h-3c-1.6569,0-3,1.3431-3,3v1h16v-1c0-1.6569-1.3431-3-3-3h-3V41.4366
			c2.0353-0.3715,3.284-1.0621,4.9385-1.3868c0.3404-0.0661,0.7595-0.0656,1.2175-0.0186l-4.0759,10.6836
			c-0.0645,0.1445-0.0801,0.4414-0.0626,0.764C52.1981,55.8218,54.8033,58,58,58c3.174,0,5.7723-2.1407,5.9858-6.422
			C63.9984,51.3256,64.0217,51.0652,63.8965,50.7148z M41.1,51c0,2.6666-1.4431,4-3.1,4c-0.3525,0-0.6858-0.0734-1-0.1942
			c1.1625-0.4467,2-1.7066,2-3.8058h-4.0317l3.02-7.916C37.9929,43.096,41.1129,51,41.1,51z M58,55
			c-0.3525,0-0.6858-0.0734-1-0.1942c1.1625-0.4467,2-1.7066,2-3.8058h-4.0317l3.02-7.916C57.9929,43.096,61.1129,51,61.1,51
			C61.1,53.6666,59.6569,55,58,55z"/>
	</g>
</g>
</svg>
