<?xml version="1.0" encoding="utf-8"?>
<!-- Generator: Adobe Illustrator 18.1.1, SVG Export Plug-In . SVG Version: 6.00 Build 0)  -->
<svg version="1.2" baseProfile="tiny" xmlns="http://www.w3.org/2000/svg" xmlns:xlink="http://www.w3.org/1999/xlink" x="0px"
	 y="0px" width="64px" height="64px" viewBox="0 0 64 64" xml:space="preserve">
<g id="Box">
	<rect fill="none" width="64" height="64"/>
</g>
<g id="Icon">
	<g>
		<path fill="#fff" d="M11.4594,15.0507c1.0433,0.1713,1.7669-0.4601,1.9395-1.5122c0.1968-1.1982-0.3287-1.9444-1.3448-2.1113
			c-1.0704-0.1757-1.7717,0.4894-1.9491,1.5707C9.918,14.1376,10.4163,14.8795,11.4594,15.0507z"/>
		<path fill="#fff" d="M9.6267,25.7438c-0.5703-0.3301-1.3216-0.7637-1.3216-0.7637c-0.1874,0.7066-0.4933,1.8578-0.762,2.5425
			c-0.2139,0.5452-0.1401,0.3903-0.3475,0.7448c-0.4195,0.7173-0.9609,1.4421-1.4263,2.2563
			c-0.7654,1.3389,0.1602,2.3222,0.29,2.4478c0.7522-1.0566,2.0488-2.6188,2.78-3.7185c0.2448-0.3632,0.2717-0.3927,0.5471-0.9214
			c0.2092-0.4232,0.494-1.0308,0.903-2.0439c0.1794,0.1639,0.353,0.3491,0.5323,0.5295c0.4413,0.444,0.714,0.6599,0.8879,0.9879
			c0.0526,0.0991,0.162,0.3244,0.2723,0.6086c0.6735,1.735,1.212,2.7452,1.5101,3.4564c0.4482,1.0692,1.6934,1.174,2.0427,1.0682
			c-0.3436-1.3581-1.1373-4.1334-1.5798-5.4813c-0.3126-0.9524-0.3549-0.9675-0.5571-1.2999
			c-0.2366-0.3889-0.4608-0.6877-0.681-0.9927c-0.4616-0.6273-0.941-1.2408-1.4285-1.8508
			c0.1934-1.0144,0.4757-2.2682,0.7401-3.3887c0.1129,0.3514,0.2412,0.7172,0.4374,1.1118c0.2378,0.4645,1.026,1.1802,1.3851,1.5587
			c0.8688,0.9156,1.7835,0.5164,1.9705,0.4184c-0.3309-0.4424-1.1469-1.3809-1.369-1.6541
			c-0.1739-0.2139-0.5897-0.7068-0.7029-0.957c-0.1547-0.3337-0.2806-0.7698-0.3907-1.1636c-0.0515-0.184-0.5746-2.345-0.655-2.4616
			c-0.2824-0.7044-2.4102-1.6865-3.6694-0.9361c-0.6928,0.4128-1.9958,1.3818-2.6562,2.1055
			C5.977,18.392,5.8149,18.66,5.6428,19.6368c-0.1048,0.616-0.1721,1.3283-0.1844,1.9481
			c-0.0139,0.6887,0.3506,1.3403,1.0723,1.4907c0.1555-1.1766,0.4012-2.9349,0.7781-3.6977
			c0.1534-0.3105,0.8485-0.7744,1.1389-0.9631c-0.1846,0.8564-0.8214,3.7122-0.8214,4.3661c0,0.8087,0.5225,1.2287,0.8561,1.5782
			l1.3038,1.366C9.7862,25.7251,9.7378,25.8082,9.6267,25.7438z"/>
		<path fill="#fff" d="M43.1379,2.0908C44,1.9183,44.1725,1.7946,44.1725,1.6222c0-0.1724-0.5173-0.3449-1.3794-0.3793
			c0,0-1.3103,0.2069-1.2414,0.7586C41.6207,2.5532,42.2758,2.2632,43.1379,2.0908z"/>
		<path fill="#fff" d="M30.4991,27.2271l2.9127,1.2896c0.4683,0.2072,1.0036,0.2143,1.4688,0.0005c1.3253-0.6087,3.1701-1.6872,3.883-2.9932
			c0.1371-0.2514,0.172-0.546,0.1626-0.8322c-0.0089-0.2719-0.0286-0.5405-0.0568-0.7916
			c-0.0966-0.8617-0.7981-1.5347-1.6633-1.5929c-0.4968-0.0334-1.0943-0.048-1.729-0.0396
			c-0.4779,0.0063-0.9376,0.1944-1.2757,0.5324l-3.7023,3.7024V27.2271z"/>
		<path fill="#fff" d="M24.9311,13.8636c0.3103,0.0345,1.2414-0.9655,1.4827-1.2069c0.2414-0.2414,0.2207-1.7277,0-2.0345
			c-0.2207-0.3068-0.3952-0.7362-0.8528-0.5577c-0.4575,0.1784-1.6644,2.8902-1.5955,3.224
			C24.0345,13.6222,24.6207,13.829,24.9311,13.8636z"/>
		<path fill="#fff" d="M38.0265,3.0834c0.6552-0.1217,1.8011-0.0822,1.7666-0.7393c0,0-0.0345-0.4802-2.1034-0.1184
			c-2.069,0.3618-2.3448,0.3374-2.3448,0.8241C35.3448,3.5366,37.3713,3.2051,38.0265,3.0834z"/>
		<path fill="#fff" d="M31.1111,5.274c0,0,1.3861-0.8743,2.4913-0.859c1.1052,0.0152,0.6275-0.8809,0.6275-0.8809s-0.7587-0.7661-3.009,0.6445
			c-2.2504,1.4105-1.6564,1.5762-1.6177,1.6705C29.6418,5.9432,30.278,5.9504,31.1111,5.274z"/>
		<path fill="#fff" d="M27.9756,8.22c0.3103-0.5861,1.2027-0.7554,0.8175-1.253c0,0-0.8276-0.2069-1.5862,0.6552
			c-0.7585,0.8621-1.2414,1.2759-0.931,1.7241C26.5862,9.7946,27.6652,8.8063,27.9756,8.22z"/>
		<path fill="#fff" d="M17.6557,43.04l0.4548-0.266c0.3854-0.2254,0.4927-0.5579,0.1774-0.8738l-3.5142-2.3345
			c-0.0748-0.0497-0.1596-0.0803-0.2494-0.0774c-0.5614,0.0178-2.4419-0.0002-2.4419,1.24l1.7373,0.2348
			c0.323,0.1538,0.623,0.2965,0.946,0.4504l1.5733,1.4778C16.6965,43.2271,17.2323,43.2876,17.6557,43.04z"/>
		<path fill="#fff" d="M13.0511,42.2158l-1.7878-0.1979c-0.2627-0.0291-0.5278,0.0748-0.6899,0.2835c-0.2608,0.3356-0.4958,0.6827-0.6996,1.0368
			l2.3879,0.0843c0.3608,0.0128,0.7118,0.1205,1.0176,0.3123l0.5177,0.3246c0.6409,0.402,1.4522,0.4144,2.105,0.0322l0.0108-0.0063
			l-1.7175-1.3916C13.8675,42.428,13.4703,42.2623,13.0511,42.2158z"/>
		<path fill="#fff" d="M52.8136,20.459l4.2085-2.8057C57.633,17.2461,58,16.5604,58,15.826V9.0397c0-1.2791-0.6177-2.4795-1.6585-3.2229
			l-3.9162-2.7973c-0.8966-0.6405-2.0436-0.8186-3.0923-0.4803L34.9714,7.1719c-0.4667,0.1506-0.8064,0.5545-0.8748,1.0401
			l-0.9479,6.7335c-0.0862,0.6118,0.2767,1.1978,0.8628,1.3931l1.113,0.3711C35.6474,16.884,36,17.3733,36,17.9244v2.0169
			c0,0.4498,0.3557,0.8161,0.8049,0.8368c1.1953,0.0548,2.3047,0.2383,2.7596,0.6932c0.7636,0.7626,0.8251,3.2722,0.8284,3.899
			c-0.0151,0.0927-0.0298,0.1826-0.045,0.2753c-0.8862,2.4669-4.6134,4.5237-5.8637,5.1556
			c-0.2519,0.1273-0.5494,0.1219-0.795-0.0171L29.6006,28.47c-0.3657-0.162-0.6016-0.5243-0.6015-0.9243L29,24.7154v-1.8408
			c0-0.5304,0.314-1.0105,0.8-1.2231l0.0252-0.0111c0.6564-0.2871,0.9691-1.0412,0.7086-1.7086l-1.2158-3.1155
			c-0.1917-0.4913-0.6652-0.8148-1.1927-0.8148c-1.7158,0-1.8749,0.138-2.8721-0.4116c-0.683-0.3763-1.5411-0.0597-1.816,0.67
			c-0.275,0.7298-0.4363,7.4289-1.7454,11.0946c-1.0584,2.9636-2.8085,5.2674-4.0463,6.6455h7.3597l-1.9317-3.3961
			c-0.3274-0.5741-0.2021-1.3058,0.2988-1.7368c0.5021-0.4325,1.2402-0.4447,1.7558-0.037l7.7409,6.1113
			c0.3318,0.2618,0.5252,0.6591,0.5252,1.0817s-0.1934,0.8199-0.5252,1.0816l-7.7409,6.1074
			c-0.5181,0.4098-1.2549,0.3867-1.7558-0.0448c-0.5009-0.4309-0.6262-1.1721-0.2988-1.7462L25.007,38h-8.9485
			c0.0418,0.0623,0.0869,0.1228,0.1416,0.1766c0.9528,0.9362,3.1849,3.1546,3.1849,3.1546c0.7757,0.7775,0.6077,2.0782-0.34,2.6331
			l-2.3856,1.3965c-0.2438,0.1428-0.2623,0.4884-0.0352,0.6567c1.1445,0.8478,2.1272,1.5759,2.2037,1.633
			c0.1894,0.1413,0.0564,0.5678,0.0564,0.5678l-4.5237-2.5077c-0.896-0.5205-1.9366-0.8111-2.9725-0.7868
			c0,0-5.2647,0.4083-3.8814,1.7916c0.6988,0.6371,2.1001,2.2563,2.5693,2.0986c0.3127-0.1051,0.7186-0.4419,0.7186-0.4419
			l3.0384,1.7202c0.2295,0.0952,0.2325-0.3165,0.4583-0.7211c0.2258-0.4047,0.7203-0.5746,1.1485-0.3973
			c0,0,3.3572,1.4636,3.9159,1.6204c0.4348,0.122,0.8163,0.0463,1.1488-0.3494c0.2905-0.3457,1.054-1.581,1.054-1.581
			c0.2704-0.4055,0.7477-0.6224,1.2311-0.5593l6.8881,0.9c0.3879,0.0506,0.7313,0.2759,0.9324,0.6115
			c0.4861,1.0012,0.6557,1.2433,1.211,1.5485c0.2361,0.1298,7.7007,3.2988,7.7007,3.2988c0.6032,0.2583,0.9133,0.931,0.7182,1.5575
			l-1.1209,3.5985c0.0005,0.2609,0.001,0.504,0.0015,0.7649l0.5424,1.7199c0.1685,0.5343,0.6646,0.8971,1.2249,0.8958l3.835-0.0092
			C45.4286,62.9891,46,62.4164,46,61.7106c-0.2502-0.4178-1.294-2.4062-1.5354-2.5269l-0.5844-0.2922
			c-0.4339-0.2169-0.7078-0.6602-0.7078-1.1452v-0.6784c0-0.3395,0.1348-0.6651,0.3749-0.9052l2.239-1.9477
			c0.1045-0.169,0.2048-0.3313,0.3093-0.5005l1.7158-5.1472c0.1196-0.3587,0.0743-0.752-0.1234-1.0743l-4.2301-6.8955
			c-0.2197-0.3582-0.2497-0.8016-0.08-1.1861l0.2303-0.522c0.2316-0.525,0.7843-0.8318,1.3524-0.7507l5.4057,0.7722
			c0.3989,0.0571,0.8014-0.0771,1.0863-0.3621l2.563-2.5631c0.5368-0.5368,0.5186-1.4126-0.0401-1.9266l-0.0347-0.0319
			c-0.5586-0.514-0.5769-1.3898-0.0401-1.9266l3.7242-3.7242C57.8651,28.1363,58,27.8107,58,27.4712v-2.1893
			c0-0.7072-0.5732-1.2804-1.2803-1.2804h-2.7968c-0.5511,0-1.0404-0.3526-1.2147-0.8755l-0.399-1.1967
			C52.1266,21.3815,52.3333,20.7794,52.8136,20.459z"/>
		<path fill="#fff" d="M17.0411,50.8655l-1.5397-0.6722c-0.1154-0.0505-0.2495-0.0301-0.3448,0.0523l-1.2663,1.0942
			c-0.1107,0.0956-0.2714,0.1062-0.3936,0.0259l-2.1838-1.4347c-0.1823-0.1198-0.4163-0.1268-0.6056-0.0184L10.1713,50.22
			c-0.199,0.1141-0.4467,0.0998-0.6313-0.0363l-1.942-1.4329c-0.1707-0.1259-0.4124-0.0794-0.5242,0.1008l-1.4859,2.3953
			c-0.0717,0.1156-0.0644,0.2635,0.0183,0.3716l0.8289,0.9143c0.1009,0.1318,0.2529,0.2139,0.4184,0.2254
			c0,0,1.6622,0.435,1.8809,0.1381C8.9532,52.5994,9,51.7712,9,51.7712l1.2592,0.0534c0.0653-0.007,0.1312,0.0059,0.1891,0.0369
			l3.5152,1.8805c0.1167,0.0625,0.2595,0.0485,0.3618-0.0354l2.7923-2.2881C17.3067,51.2635,17.2652,50.9634,17.0411,50.8655z"/>
	</g>
</g>
</svg>
