<?xml version="1.0" encoding="utf-8"?>
<!-- Generator: Adobe Illustrator 17.1.0, SVG Export Plug-In . SVG Version: 6.00 Build 0)  -->
<svg version="1.2" baseProfile="tiny" xmlns="http://www.w3.org/2000/svg" xmlns:xlink="http://www.w3.org/1999/xlink" x="0px"
	 y="0px" width="64px" height="64px" viewBox="0 0 64 64" xml:space="preserve">
<g id="_x36_4px_Box">
	<rect fill="none" width="64" height="64"/>
</g>
<g id="Label" display="none">
</g>
<g id="Production">
	<g>
		<path fill="#fff" d="M59.8651,59c0.0154-2.6967-3.4877-5.539-6.4631-4.3684c-1.527-5.1316-6.8395-8.1941-10.8086-5.5622l0.6527,3.4999
			c0.0645,0.3452,0.2188,0.668,0.4463,0.9321c0.5889,0.6865,1.5088,1.7524,2.6045,2.9902c0.8607,0.9738,0.975,1.8931,0.9142,2.5083
			H59.8651z"/>
		<path fill="#fff" d="M42.1745,54.8045c-0.4574-0.5332-0.7653-1.1779-0.8941-1.8685c-0.6048-3.2422,1.4268,7.6515-2.5222-13.5215
			c0.0077,0.0051,0.0159,0.0093,0.0237,0.0144c-0.7663-6.0262,3.1461-8.4105,4.278-8.9653
			c0.0807,0.0208,0.0807,0.1458-0.0137,0.2263c-0.809,0.9987-2.8716,4.0031-2.3332,8.1305c0.0575,0.441,0.1627,0.7412,0.2844,1.4082
			c1.2141,0.4547,2.5257,0.7084,3.8991,0.7084C51.087,40.937,56,36.2389,56,30.0485c0-2.8044-0.9321-5.3618-2.6345-7.3275
			c0.8571-1.5034,1.3534-3.239,1.3534-5.0934c0-4.689-3.1329-8.6396-7.4174-9.8904C45.83,4.926,42.8899,3.0048,39.4971,3.0048
			c-2.3347,0-4.4511,0.9146-6.0275,2.3969c-1.4922-1.161-3.3625-1.8591-5.3996-1.8591c-4.8648,0-8.8091,3.9438-8.8091,8.8091
			c0,0.0169,0.0024,0.0332,0.0025,0.05c-4.6289,0.5948-7.7927,5.1776-6.4668,9.8275c-1.9603,1.8257-3.1937,4.4216-3.1937,7.3118
			c0,5.5229,4.4771,10,10,10c2.4661,0,4.72-0.8969,6.4636-2.3767c1.0591,1.8419,1.9441,3.02,1.8061,5.1515l-0.2664,4.1165
			c4.6569,2.8898,4.9011,8.2083,4.9199,8.4194c0.02,0.2239,0.0601,0.3806-0.1401,0.403c-0.7992-1.4774-3.4672-7.5521-8.5062-7.2247
			c-3.6849,0.2394-4.9644,3.6783-4.9644,3.6783s-2.2422-1.5294-4.9218-0.0612c-2.2847,1.2518-3.201,4.2452-3.201,4.2452
			s-2.3704-0.6523-4.3458,0.7101C5.2473,57.4299,4.3492,58.8187,4,62h13.8749c-0.3004-2.1715,0.5418-4,0.5418-4
			c0.5984,2.0815,2.115,3.6352,2.4946,4h0.0918c0.0338-2.5898,1.6635-6.7346,1.6635-6.7346C22.2955,60.0166,24,61.9167,24,61.9167
			L23.9572,62h10.6832c0,0-0.2725-1.2864-0.8551-3.0743l3.2112-0.6783l7.9362,1.0859c0,0,0.7424-0.5261-0.1337-1.5164
			C43.6957,56.5696,42.7671,55.4954,42.1745,54.8045z M32.8453,35.5867c-0.3268,0.6854-1.2657,0.7634-1.7097,0.1475l-2.0961-2.9084
			c0.2616-0.7513,0.4414-1.5399,0.5167-2.3607c1.2712,1.2437,2.9182,2.0981,4.7541,2.3927
			C33.7012,33.868,33.2058,34.8305,32.8453,35.5867z"/>
	</g>
</g>
</svg>
