<?xml version="1.0" encoding="utf-8"?>
<!-- Generator: Adobe Illustrator 18.1.1, SVG Export Plug-In . SVG Version: 6.00 Build 0)  -->
<svg version="1.2" baseProfile="tiny" xmlns="http://www.w3.org/2000/svg" xmlns:xlink="http://www.w3.org/1999/xlink" x="0px"
	 y="0px" width="64px" height="64px" viewBox="0 0 64 64" xml:space="preserve">
<g id="Box">
	<rect fill="none" width="64" height="64"/>
</g>
<g id="Icon">
	<g>
		<path fill="#154273" d="M53.7128,44.4532C56.05,47.0262,57,59.9429,57,59.9429H7c0,0,1.1167-12.9167,3.2872-15.4897
			c0.5768-0.6837,1.7104-1.3052,3.0891-1.8616c0.4091-0.8588,0.6146-1.5453,1.5238-1.8381l7.2188-2.3244
			c1.4032,5.5935,3.3573,12.0124,6.8796,16.8354c0.3769-2.125,1.0089-4.9637,1.6883-6.8761C29.755,46.96,28.5,44.7407,28.5,44.7407
			S29.5687,43,32,43s3.5,1.7407,3.5,1.7407s-1.255,2.2193-2.1868,3.6477c0.6837,1.9246,1.3193,4.7871,1.6953,6.9162
			c3.744-4.8914,5.6093-11.3038,7.0071-16.8755l7.2188,2.3244c0.9426,0.3036,1.1316,1.015,1.608,2.015
			C52.1255,43.2901,53.1698,43.8555,53.7128,44.4532z M16,10c0-5.3253,7.1635-8,16-8s16,2.6747,16,8
			c0,1.4767-1.1681,3.0886-3.0111,4.536c0.0432,1.8564-0.0763,3.8129-0.2182,5.372c1.2255,1.3341,1.227,3.2913,1.227,4.0358
			c0,2.3901-0.7399,4.3363-2.068,5.5558c-0.5343,3.3821-2.6341,6.6501-6.2622,9.7377C35.916,40.7279,33.3647,41,31.9998,41
			c-1.3651,0-3.9163-0.2721-5.6673-1.7627c-3.6868-3.1374-5.7513-6.3404-6.2687-9.7436c-1.324-1.22-2.0615-3.1638-2.0615-5.5499
			c0-0.7299,0.0076-2.6228,1.1636-3.9548c-0.1276-1.6251-0.2175-3.6959-0.0956-5.6219C17.2231,12.9634,16,11.4201,16,10z
			 M29.5104,7.8164l2.4957,2.168l2.4958-2.168v-0.948l-1.438-0.9629c0.2227-0.9727-0.5861-1.2606-0.5861-1.2606
			c0.0671-1.0359-0.8326-1.2392-0.8326-1.2392c0.6994,1.1552-1.0507,1.2598-1.0057,2.7067l-1.129,0.756V7.8164z M22,14.83
			c0,0.3459,0.1213,0.6798,0.3278,1C23.4395,14.1057,27.3421,13,32,13s8.5605,1.1057,9.6722,2.83
			C41.8787,15.5098,42,15.1759,42,14.83c0-2.2091-4.4772-4-10-4S22,12.6208,22,14.83z M20.9,23.9438
			c0,1.273,0.4236,3.3145,2.0414,3.8183c0,3.8634,2.6802,6.9209,5.3403,9.1847c0.7801,0.664,2.2491,1.126,3.7181,1.126
			c1.4691,0,2.9382-0.462,3.7185-1.126c2.6601-2.2638,5.3403-5.3682,5.3403-9.1847c1.6177-0.5038,2.0414-2.5453,2.0414-3.8183
			c0-1.2724-0.3217-1.961-0.7738-2.1742c-0.3346-0.1577-0.6931-0.093-1.0127,0.0872c-0.1415,0.6533-0.2486,1.1396-0.2901,1.3112
			C40.8174,24.019,40,23.9409,40,23.9409v-4.5482C38.1761,20.3668,35.2766,21,32,21s-6.1761-0.6332-8-1.6073v4.5482
			c0,0-0.8174,0.0781-1.0234-0.7729c-0.0415-0.1716-0.1486-0.6579-0.2901-1.3112c-0.3189-0.1798-0.6774-0.2451-1.0128-0.0872
			C21.2217,21.9828,20.9,22.6714,20.9,23.9438z M61.7477,41.8306c-0.4075-0.4291-1.2192-0.8967-2.112-1.3276
			c-1.1691-0.5784-2.7158-1.0901-3.4118-1.3509c-0.6233-0.2334-0.5288-1.0455-0.6577-2.1344
			c1.7633-0.0717,2.9615-0.2455,3.568-0.4766c0.1198-0.0456,0.1803-0.1555,0.1269-0.272c-0.3317-0.7239-1.194-2.8946-1.3024-4.1379
			c-0.0552-0.6321-0.078-1.3687-0.115-2.1255C57.851,30.0043,57.853,30.0014,57.8597,30c-0.2594-2.8953-0.968-5.5828-4.123-4.4971
			c0,0-2.5287-1.6962-4.5825,1.1417c-0.8627,1.1922-1.0805,2.0931-1.1317,3.3555h0.0174c-0.0417,0.8501-0.0127,1.6363-0.0371,2.2274
			c-0.0432,1.0441-0.8976,3.2451-1.2571,3.8696c-0.0766,0.133-0.0504,0.2675,0.0937,0.3197
			c0.6509,0.2363,1.8762,0.4194,3.5987,0.5282c-0.0454,0.4119-0.1123,1.4478-0.2932,1.8184
			c0.9514,0.3759,1.7451,1.0889,2.1871,2.0166l0.1404,0.2949c1.3261,0.6041,2.2485,1.2164,2.8688,1.8992
			c0.7509,0.8267,1.3631,2.2923,1.866,4.0261H63C63,47,62.9419,43.0878,61.7477,41.8306z M11.7475,40.8951l0.0549-0.1152
			c0.4277-0.8978,1.1866-1.5912,2.0969-1.9768c-0.4908-0.201-0.5671-0.8797-0.6023-1.4133c0.7592-0.8847,1.3223-1.9477,1.5167-3.34
			c0.7641-0.238,0.917-1.2024,0.917-1.8037c0-0.6011-0.1047-0.9264-0.3183-1.0271c-0.1568-0.0737-0.302-0.0382-0.4124,0.0131V29
			h-0.0005c0.0072-0.9965-0.0672-1.9899-0.3487-2.5067c-0.5555-1.0193-1.2305-1.4263-2.5175-1.0932
			c-0.8441-0.4601-1.4188-1.041-2.8977-0.6267c-1.0276,0.2878-2.1524,0.8104-2.745,1.5945C6.1226,26.8549,6.0311,27.9274,6.02,29
			L6,31.2007c-0.0989-0.0308-0.2186-0.0405-0.3436,0.0183c-0.2136,0.1007-0.3183,0.426-0.3183,1.0271
			c0,0.6013,0.153,1.5657,0.9171,1.8037c0.1712,1.44,0.725,2.4588,1.4686,3.3089c-0.0253,0.6015-0.0671,1.3259-0.6398,1.486
			c-1.2009,0.3356-3.8576,1.1779-4.7931,2.1632C1.0967,42.265,1,47,1,47h5.8585c0.4845-1.7089,1.0605-3.1515,1.7471-3.9654
			C9.2678,42.2497,10.2769,41.5605,11.7475,40.8951z"/>
	</g>
</g>
</svg>
