<?xml version="1.0" encoding="utf-8"?>
<!-- Generator: Adobe Illustrator 17.1.0, SVG Export Plug-In . SVG Version: 6.00 Build 0)  -->
<svg version="1.2" baseProfile="tiny" xmlns="http://www.w3.org/2000/svg" xmlns:xlink="http://www.w3.org/1999/xlink" x="0px"
	 y="0px" width="64px" height="64px" viewBox="0 0 64 64" xml:space="preserve">
<g id="_x36_4px_Boxes">
	<rect fill="none" width="64" height="64"/>
</g>
<g id="Icon">
	<g>
		<path fill="#fff" d="M18.5401,6.0079c-0.2658,3.9292,1.729,5.992,4.9599,5.992c3.1674,0,5-2.2184,5-5.4108
			c0-2.0757-0.7797-5.994-2.8156-6.4351C23.324-0.3563,15.3048,3.4496,15.48,4.873C15.5872,5.743,17.2552,5.965,18.5401,6.0079z"/>
		<path fill="#fff" d="M44.5,13c3.1665,0,5-1.9516,5-5.411C49.5,4.3059,47.7495,2,44.5,2c-3.0847,0-5,1.9509-5,5.589
			C39.5,10.7822,41.3323,13,44.5,13z"/>
		<path fill="#fff" d="M56.9442,33.7448c-0.7017-3.7675-1.5696-5.8279-1.8866-8.4457c-0.7014-5.796-2.4709-8.5814-5.7629-9.5945
			C47.7268,15.2221,46.232,15.0001,44.5303,15h-0.0606c-1.7017,0.0001-3.1965,0.2221-4.7644,0.7045
			c-1.1634,0.358-2.1257,0.9558-2.9282,1.8129c1.4955,0.7565,2.3755,2.3437,2.3755,4.7176c0,2.9916-1.7054,5.0282-4.6526,5.0282
			c-2.9462,0-4.6526-1.787-4.6526-5.0282c0-2.249,0.8801-3.9983,2.5316-4.7812C30.7147,15.1462,27.9838,14,23.5005,14L23.5,14.001
			V14c-1.6896,0-3.1119,0.1806-4.3304,0.5194c-2.3298,0.5344-4.6581,1.6843-5.9124,4.1196
			C10.8754,23.2635,6.18,37.4011,6.18,37.4011c0.2955,0.2104,0.7969,0.2717,1.3795,0.2045
			c0.4131,4.2478,2.3897,24.5578,2.4828,25.3041c0.0861,0.6901,2.4176,0.4621,2.3447-0.2782
			c-0.0774-0.7852-1.4595-20.3402-1.8813-26.3157c0.4688-0.3972,0.859-0.8784,1.0941-1.4368
			c0.9462-2.2473,1.9794-4.8003,2.673-6.7523c0.897-2.5249,1.4807-4.0413,2.2408-5.6683c0.1624-0.3477,0.3163-0.5583,0.4827-0.4094
			L17,22.0358V63c0,0,4.8654,0.0391,5.2372-5.0498c0,0,0.7277-19.2431,0.7359-19.457C22.9813,38.2793,23.1406,38,23.5,38
			c0.3594,0,0.5083,0.2793,0.5165,0.4932c0.0082,0.2139,0.7308,19.3173,0.7308,19.3173c0.2743,4.9745,4.7563,5.1807,5.2078,5.1889
			v-15.579c-0.994,0-2.7936-0.5714-2.9266-2.9201c-0.2926-5.1649-0.1537-13.4299,2.9935-14.9727
			c1.9266-0.9443,7.1199-0.9443,9.2288-0.0342c2.909,1.2558,2.8331,9.7482,2.8219,14.9642
			c-0.0051,2.3527-2.0389,2.9658-3.0321,2.9658v15.5743c0.1434-0.0233,3.7117-0.6389,3.9595-4.2064
			c0,0,0.8159-8.6949,0.9611-12.8555c0.5602-0.0887,0.5874-0.0983,1.0627-0.1677C45.1661,49.8317,46,58.688,46,58.688
			C46.1888,62.4385,49.9844,63,49.9844,63L50,45.6978c1.7598,0.1675,2.9346,0.4533,2.9346,0.4533
			c0-8.8604-2.1483-12.3962-2.8838-15.1734c-0.3907-1.4758-0.3087-3.0205,0.0468-4.4986c0.334-1.3894,0.7635-2.6836,0.0892-5.4301
			c0,0,0.3548,0.6231,0.497,1.0269c0.7902,2.244,0.5601,6.5845,3.7455,16.5873C55.8166,38.4857,57.5153,36.8102,56.9442,33.7448z"/>
	</g>
</g>
</svg>
