<?xml version="1.0" encoding="UTF-8"?>
<svg width="24px" height="24px" viewBox="0 0 24 24" version="1.1" xmlns="http://www.w3.org/2000/svg" xmlns:xlink="http://www.w3.org/1999/xlink">
    <!-- Generator: Sketch 62 (91390) - https://sketch.com -->
    <title>01. Ontwerpprincipes/03 Icons/24/Focus</title>
    <desc>Created with Sketch.</desc>
    <g id="01.-Ontwerpprincipes/03-Icons/24/Focus" stroke="none" stroke-width="1" fill="none" fill-rule="evenodd">
        <circle id="Oval" fill="#154273" cx="12" cy="12" r="1"></circle>
        <path d="M14.8675769,5.90055249 C14.7182162,5.70718232 14.456835,5.70718232 14.2701341,5.82320442 L12.9258878,6.75138122 L12.9258878,3.65745856 C12.9258878,3.15469613 12.5151458,3 12.0297235,3 C11.5816414,3 11.058879,3.15469613 11.058879,3.65745856 L11.058879,6.75138122 L9.71463266,5.82320442 C9.52793178,5.66850829 9.26655056,5.70718232 9.11718985,5.90055249 C8.96782915,6.09392265 8.96782915,6.32596685 9.07984968,6.51933702 L11.6189816,9.80662983 C11.693662,9.92265193 11.8430227,10 11.9923834,10 C12.1417441,10 12.2537646,9.92265193 12.3657851,9.80662983 L14.9049171,6.51933702 C15.0542778,6.32596685 15.0169376,6.05524862 14.8675769,5.90055249 Z" id="Shape" fill="#154273"></path>
        <path d="M14.8675769,16.9005525 C14.7182162,16.7071823 14.456835,16.7071823 14.2701341,16.8232044 L12.9258878,17.7513812 L12.9258878,14.6574586 C12.9258878,14.1546961 12.5151458,14 12.0297235,14 C11.5816414,14 11.058879,14.1546961 11.058879,14.6574586 L11.058879,17.7513812 L9.71463266,16.8232044 C9.52793178,16.6685083 9.26655056,16.7071823 9.11718985,16.9005525 C8.96782915,17.0939227 8.96782915,17.3259669 9.07984968,17.519337 L11.6189816,20.8066298 C11.693662,20.9226519 11.8430227,21 11.9923834,21 C12.1417441,21 12.2537646,20.9226519 12.3657851,20.8066298 L14.9049171,17.519337 C15.0542778,17.3259669 15.0169376,17.0552486 14.8675769,16.9005525 Z" id="Shape" fill="#154273" transform="translate(12.000000, 17.500000) rotate(-180.000000) translate(-12.000000, -17.500000) "></path>
        <path d="M9.36757688,11.4005525 C9.21821618,11.2071823 8.95683495,11.2071823 8.77013407,11.3232044 L7.42588776,12.2513812 L7.42588776,9.15745856 C7.42588776,8.65469613 7.01514583,8.5 6.52972354,8.5 C6.08164144,8.5 5.55887898,8.65469613 5.55887898,9.15745856 L5.55887898,12.2513812 L4.21463266,11.3232044 C4.02793178,11.1685083 3.76655056,11.2071823 3.61718985,11.4005525 C3.46782915,11.5939227 3.46782915,11.8259669 3.57984968,12.019337 L6.11898161,15.3066298 C6.19366196,15.4226519 6.34302267,15.5 6.49238337,15.5 C6.64174407,15.5 6.7537646,15.4226519 6.86578512,15.3066298 L9.40491706,12.019337 C9.55427776,11.8259669 9.51693759,11.5552486 9.36757688,11.4005525 Z" id="Shape" fill="#154273" transform="translate(6.500000, 12.000000) rotate(-90.000000) translate(-6.500000, -12.000000) "></path>
        <path d="M20.3675769,11.4005525 C20.2182162,11.2071823 19.956835,11.2071823 19.7701341,11.3232044 L18.4258878,12.2513812 L18.4258878,9.15745856 C18.4258878,8.65469613 18.0151458,8.5 17.5297235,8.5 C17.0816414,8.5 16.558879,8.65469613 16.558879,9.15745856 L16.558879,12.2513812 L15.2146327,11.3232044 C15.0279318,11.1685083 14.7665506,11.2071823 14.6171899,11.4005525 C14.4678292,11.5939227 14.4678292,11.8259669 14.5798497,12.019337 L17.1189816,15.3066298 C17.193662,15.4226519 17.3430227,15.5 17.4923834,15.5 C17.6417441,15.5 17.7537646,15.4226519 17.8657851,15.3066298 L20.4049171,12.019337 C20.5542778,11.8259669 20.5169376,11.5552486 20.3675769,11.4005525 Z" id="Shape" fill="#154273" transform="translate(17.500000, 12.000000) rotate(-270.000000) translate(-17.500000, -12.000000) "></path>
    </g>
</svg>