<?xml version="1.0" encoding="UTF-8"?>
<svg width="24px" height="24px" viewBox="0 0 24 24" version="1.1" xmlns="http://www.w3.org/2000/svg" xmlns:xlink="http://www.w3.org/1999/xlink">
    <!-- Generator: Sketch 62 (91390) - https://sketch.com -->
    <title>01. Ontwerpprincipes/03 Icons/24/FullScreen</title>
    <desc>Created with Sketch.</desc>
    <g id="01.-Ontwerpprincipes/03-Icons/24/FullScreen" stroke="none" stroke-width="1" fill="none" fill-rule="evenodd">
        <path d="M18.7566642,7.51146519 C18.6073035,7.31809502 18.3459222,7.31809502 18.1592214,7.43411712 L16.8149751,8.36229392 L16.8149751,5.26837127 C16.8149751,4.76560884 16.4042331,4.6109127 15.9188108,4.6109127 C15.4707287,4.6109127 14.9479663,4.76560884 14.9479663,5.26837127 L14.9479663,8.36229392 L13.60372,7.43411712 C13.4170191,7.27942099 13.1556379,7.31809502 13.0062772,7.51146519 C12.8569164,7.70483536 12.8569164,7.93687955 12.968937,8.13024972 L15.5080689,11.4175425 C15.5827493,11.5335646 15.73211,11.6109127 15.8814707,11.6109127 C16.0308314,11.6109127 16.1428519,11.5335646 16.2548724,11.4175425 L18.7940044,8.13024972 C18.9433651,7.93687955 18.9060249,7.66616132 18.7566642,7.51146519 Z" id="Shape" fill="#154273" transform="translate(15.889087, 8.110913) rotate(-135.000000) translate(-15.889087, -8.110913) "></path>
        <path d="M10.9784896,15.2896398 C10.8291289,15.0962696 10.5677477,15.0962696 10.3810468,15.2122917 L9.03680046,16.1404685 L9.03680046,13.0465459 C9.03680046,12.5437834 8.62605853,12.3890873 8.14063625,12.3890873 C7.69255414,12.3890873 7.16979168,12.5437834 7.16979168,13.0465459 L7.16979168,16.1404685 L5.82554537,15.2122917 C5.63884449,15.0575956 5.37746326,15.0962696 5.22810256,15.2896398 C5.07874186,15.4830099 5.07874186,15.7150541 5.19076238,15.9084243 L7.72989432,19.1957171 C7.80457467,19.3117392 7.95393537,19.3890873 8.10329607,19.3890873 C8.25265677,19.3890873 8.3646773,19.3117392 8.47669783,19.1957171 L11.0158298,15.9084243 C11.1651905,15.7150541 11.1278503,15.4443359 10.9784896,15.2896398 Z" id="Shape" fill="#154273" transform="translate(8.110913, 15.889087) rotate(-315.000000) translate(-8.110913, -15.889087) "></path>
        <path d="M10.9784896,7.51146519 C10.8291289,7.31809502 10.5677477,7.31809502 10.3810468,7.43411712 L9.03680046,8.36229392 L9.03680046,5.26837127 C9.03680046,4.76560884 8.62605853,4.6109127 8.14063625,4.6109127 C7.69255414,4.6109127 7.16979168,4.76560884 7.16979168,5.26837127 L7.16979168,8.36229392 L5.82554537,7.43411712 C5.63884449,7.27942099 5.37746326,7.31809502 5.22810256,7.51146519 C5.07874186,7.70483536 5.07874186,7.93687955 5.19076238,8.13024972 L7.72989432,11.4175425 C7.80457467,11.5335646 7.95393537,11.6109127 8.10329607,11.6109127 C8.25265677,11.6109127 8.3646773,11.5335646 8.47669783,11.4175425 L11.0158298,8.13024972 C11.1651905,7.93687955 11.1278503,7.66616132 10.9784896,7.51146519 Z" id="Shape" fill="#154273" transform="translate(8.110913, 8.110913) rotate(-225.000000) translate(-8.110913, -8.110913) "></path>
        <path d="M18.7566642,15.2896398 C18.6073035,15.0962696 18.3459222,15.0962696 18.1592214,15.2122917 L16.8149751,16.1404685 L16.8149751,13.0465459 C16.8149751,12.5437834 16.4042331,12.3890873 15.9188108,12.3890873 C15.4707287,12.3890873 14.9479663,12.5437834 14.9479663,13.0465459 L14.9479663,16.1404685 L13.60372,15.2122917 C13.4170191,15.0575956 13.1556379,15.0962696 13.0062772,15.2896398 C12.8569164,15.4830099 12.8569164,15.7150541 12.968937,15.9084243 L15.5080689,19.1957171 C15.5827493,19.3117392 15.73211,19.3890873 15.8814707,19.3890873 C16.0308314,19.3890873 16.1428519,19.3117392 16.2548724,19.1957171 L18.7940044,15.9084243 C18.9433651,15.7150541 18.9060249,15.4443359 18.7566642,15.2896398 Z" id="Shape" fill="#154273" transform="translate(15.889087, 15.889087) rotate(-45.000000) translate(-15.889087, -15.889087) "></path>
    </g>
</svg>