<?xml version="1.0" encoding="UTF-8"?>
<svg width="24px" height="24px" viewBox="0 0 24 24" version="1.1" xmlns="http://www.w3.org/2000/svg" xmlns:xlink="http://www.w3.org/1999/xlink">
    <!-- Generator: Sketch 62 (91390) - https://sketch.com -->
    <title>01. Ontwerpprincipes/03 Icons/24/Plus</title>
    <desc>Created with Sketch.</desc>
    <g id="01.-Ontwerpprincipes/03-Icons/24/Plus" stroke="none" stroke-width="1" fill="none" fill-rule="evenodd">
        <g id="Icon" transform="translate(2.000000, 2.000000)" fill="#154273">
            <path d="M18.4444444,7.77777778 L12.2222222,7.77777778 L12.2222222,1.55555556 C12.2222222,0.333333333 11.2222222,0 10,0 C8.77777778,0 7.77777778,0.333333333 7.77777778,1.55555556 L7.77777778,7.77777778 L1.55555556,7.77777778 C0.333333333,7.77777778 0,8.77777778 0,10 C0,11.2222222 0.333333333,12.2222222 1.55555556,12.2222222 L7.77777778,12.2222222 L7.77777778,18.4444444 C7.77777778,19.6666667 8.77777778,20 10,20 C11.2222222,20 12.2222222,19.6666667 12.2222222,18.4444444 L12.2222222,12.2222222 L18.4444444,12.2222222 C19.6666667,12.2222222 20,11.2222222 20,10 C20,8.77777778 19.6666667,7.77777778 18.4444444,7.77777778 Z" id="Path"></path>
        </g>
    </g>
</svg>