<?xml version="1.0" encoding="UTF-8"?>
<svg width="30px" height="35px" viewBox="0 0 30 35" version="1.1" xmlns="http://www.w3.org/2000/svg" xmlns:xlink="http://www.w3.org/1999/xlink">
    <!-- Generator: Sketch 62 (91390) - https://sketch.com -->
    <title>02. Components/01. Atoms/Pointer</title>
    <desc>Created with Sketch.</desc>
    <g id="02.-Components/01.-Atoms/Pointer" stroke="none" stroke-width="1" fill="none" fill-rule="evenodd">
        <ellipse id="Oval" fill="#ECAA9B" cx="15" cy="34" rx="6" ry="1"></ellipse>
        <path d="M25,0 C27.7614237,-1.39544373e-15 30,2.23857625 30,5 L30,24.7874223 C30,27.5488461 27.7614237,29.7874223 25,29.7874223 L20.07,29.787 L16.4091763,33.4233659 C15.629294,34.1977221 14.370706,34.1977221 13.5908237,33.4233659 L9.929,29.787 L5,29.7874223 C2.23857625,29.7874223 -1.43817996e-15,27.5488461 0,24.7874223 L0,5 C-3.38176876e-16,2.23857625 2.23857625,-3.80913106e-16 5,0 L25,0 Z" id="Combined-Shape" fill="#154273"></path>
        <g id="01.-Ontwerpprincipes/03-Icons/24/Home" transform="translate(3.000000, 2.801594)" fill="#FFFFFF">
            <g id="Icon" transform="translate(2.000000, 2.000000)">
                <path d="M19.7416,8.9124274 L10.2712,0.106721134 C10.118,-0.0355737112 9.8824,-0.0355737112 9.7292,0.106721134 L0.2584,8.9124274 C0.094,9.0656369 0,9.28150465 0,9.50747856 L0,10.1065722 C0,10.3293121 0.1792,10.5108189 0.4,10.5108189 L2,10.5108189 L2,19 L8,19 L8,12.9362992 L12,12.9362992 L12,19 L18,19 L18,10.5108189 L19.6,10.5108189 C19.8208,10.5108189 20,10.3293121 20,10.1065722 L20,9.50747856 C20,9.28150465 19.9064,9.0656369 19.7416,8.9124274" id="Fill-1"></path>
            </g>
        </g>
    </g>
</svg>