<svg version="1.2" aria-hidden="true" focusable="false" role="img" xmlns="http://www.w3.org/2000/svg" width="64" height="64"><g fill="#154273"><path d="M16 31C9.373 31 4 36.373 4 43s5.373 12 12 12 12-5.373 12-12-5.373-12-12-12zm0 17.25a5.25 5.25 0 1 1 0-10.5 5.25 5.25 0 0 1 0 10.5z"/><path d="M53 32.88c.683 0 1.348.07 2 .179v-5.374a3 3 0 0 0-2.669-2.981L47 24.11V15.5c0-.828-.672-1.146-1.5-1.146S44 14.672 44 15.5v8.278l-4.03-.448-1.83-11.954A2.784 2.784 0 0 0 35.372 9H14.224l-2.298 15H9.01c-.663 0-1.299.263-1.768.732l-5 5c-.976.976-.576 2.16.4 3.135.977.977 2.159 1.377 3.136.4L10.045 29h11.93L30 37.026V42a3 3 0 0 0 3 3h7.88c0-6.694 5.426-12.12 12.12-12.12zM22 24h-5.016l1.533-10H22v10zm13.298 10.74c.152.297-.08.434-.08.434L25 24.955V14h8.483l2.452 16H32.5s2.646 4.444 2.798 4.74z"/><path d="M53 35c-5.523 0-10 4.477-10 10s4.477 10 10 10 10-4.477 10-10-4.477-10-10-10zm0 14.2a4.2 4.2 0 1 1 0-8.4 4.2 4.2 0 0 1 0 8.4z"/></g></svg>
