<?xml version="1.0" encoding="utf-8"?>
<!-- Generator: Adobe Illustrator 17.1.0, SVG Export Plug-In . SVG Version: 6.00 Build 0)  -->
<svg version="1.2" baseProfile="tiny" xmlns="http://www.w3.org/2000/svg" xmlns:xlink="http://www.w3.org/1999/xlink" x="0px"
	 y="0px" width="64px" height="64px" viewBox="0 0 64 64" xml:space="preserve">
<g id="_x36_4px_Boxes">
	<rect fill="none" width="64" height="64"/>
</g>
<g id="Icon">
	<path fill="#154273" d="M61,26.5c0-4.1422-3.3578-7.5-7.5-7.5S46,22.3578,46,26.5c0,2.5616,1.2862,4.8206,3.2458,6.1736
		c-0.8922,3.2466-1.9083,6.8433-2.5554,8.8137c-1.7207,5.248-4.5195,10.6128-12.2236,10.6128c-6.5472,0-8.7535-5.5944-9.4846-8.8721
		c-2.3008-0.1772-3.2166-0.6476-3.4304-0.7731c-0.2398-0.1406-0.1964-0.3062-0.1676-0.3854c0.2055,0.01,0.41,0.0399,0.6158,0.0399
		c2.1895-0.0005,4.3789-0.5654,6.332-1.6958c7.791-4.5112,9.842-21.7002,7.924-26.5347c-1.1804-2.9759-3.9166-4.2901-6.4168-4.7569
		c-0.3242-1.1284-0.9641-1.9182-1.7829-2.011c-1.3566-0.1538-2.6746,1.6461-2.9437,4.0201c-0.2691,2.374,0.6125,4.4233,1.9691,4.577
		c0.8281,0.0939,1.6387-0.5457,2.2083-1.5939c1.043,0.2164,2.1443,0.6671,2.5176,1.608c0.4561,1.1484,0.5166,5.4458-0.5654,10.2129
		c-1.1475,5.0576-3.1729,8.8525-5.415,10.1514c-2.3613,1.3662-5.293,1.3662-7.6523,0c-5.4785-3.1719-7.1025-17.5391-5.9824-20.3643
		c0.3738-0.9441,1.485-1.3949,2.532-1.6107c0.5696,1.05,1.3811,1.6907,2.21,1.5967c1.3566-0.1537,2.2382-2.203,1.9691-4.577
		c-0.2692-2.374-1.5871-4.1739-2.9437-4.0201c-0.8188,0.0928-1.4588,0.8827-1.783,2.0112c-2.5033,0.465-5.2499,1.776-6.4329,4.7567
		c-1.917,4.835,0.1359,22.0244,7.925,26.5347c1.2617,0.7302,2.6255,1.1989,4.0203,1.4575
		c0.5311,5.6293,4.1598,15.2291,14.7775,15.2291c12.3652,0,15.835-10.5781,16.9746-14.0537
		c0.6827-2.0804,1.7248-5.7684,2.6334-9.0754C57.9474,33.6765,61,30.4481,61,26.5z M53.5,29.125c-1.4498,0-2.625-1.1753-2.625-2.625
		c0-1.4498,1.1752-2.625,2.625-2.625s2.625,1.1752,2.625,2.625C56.125,27.9497,54.9498,29.125,53.5,29.125z"/>
</g>
</svg>
