<svg version="1.2" aria-hidden="true" focusable="false" role="img" xmlns="http://www.w3.org/2000/svg" width="64" height="64"><path fill="#154273" d="M61.225 30.206L32.813 3.32a1.191 1.191 0 0 0-1.626 0L2.775 30.206A2.438 2.438 0 0 0 2 31.99v1.797C2 34.457 2.537 35 3.2 35H8v25h48V35h4.8c.663 0 1.2-.543 1.2-1.213V31.99c0-.678-.281-1.325-.775-1.784zM32 54H15.4s1.005-7.166 2.913-9.068c1.53-1.526 6.794-3.373 8.857-4.057.183-.709.318-1.392.41-1.985-1.186-1.303-2.075-2.865-2.318-4.661-1.203-.34-1.444-2.617-1.444-3.474 0-.857.165-1.321.501-1.465.079-.034.153-.032.23-.038-.17-1.327-.633-5.828.62-7.384 1.01-1.254 2.929-2.005 4.68-2.465 2.522-.662 3.502-.202 4.941.534 2.195-.533 3.346.261 4.292 1.892.997 1.715.495 6.095.315 7.414a.717.717 0 0 1 .284.047c.336.144.501.608.501 1.465 0 .857-.241 3.135-1.444 3.474-.302 1.863-1.173 3.407-2.349 4.694.09.584.228 1.254.427 1.947 2.052.68 7.338 2.533 8.872 4.062C47.595 46.834 48.6 54 48.6 54H32z"/></svg>
