<svg version="1.2" aria-hidden="true" focusable="false" role="img" xmlns="http://www.w3.org/2000/svg" width="64" height="64"><path fill="#154273" d="M53.713 44.453C56.05 47.026 57 59.943 57 59.943H7s1.117-12.917 3.287-15.49c.577-.684 1.71-1.305 3.09-1.861.408-.86.614-1.546 1.523-1.838l7.219-2.325c1.403 5.594 3.357 12.013 6.88 16.836.376-2.125 1.008-4.964 1.688-6.877-.932-1.428-2.187-3.647-2.187-3.647S29.569 43 32 43s3.5 1.74 3.5 1.74-1.255 2.22-2.187 3.648c.684 1.925 1.32 4.787 1.695 6.917 3.745-4.892 5.61-11.304 7.008-16.876l7.218 2.324c.943.304 1.132 1.015 1.608 2.015 1.284.522 2.328 1.087 2.87 1.685zM16 10c0-5.325 7.163-8 16-8s16 2.675 16 8c0 1.477-1.168 3.089-3.011 4.536.043 1.856-.076 3.813-.218 5.372 1.225 1.334 1.227 3.291 1.227 4.036 0 2.39-.74 4.336-2.068 5.556-.535 3.382-2.634 6.65-6.263 9.737C35.916 40.727 33.365 41 32 41c-1.365 0-3.916-.272-5.667-1.763-3.687-3.137-5.752-6.34-6.27-9.743-1.323-1.22-2.06-3.164-2.06-5.55 0-.73.007-2.623 1.163-3.955-.128-1.625-.218-3.696-.096-5.622C17.223 12.963 16 11.42 16 10zm13.51-2.184l2.496 2.168 2.496-2.168v-.948l-1.438-.962c.223-.973-.586-1.261-.586-1.261.067-1.036-.833-1.24-.833-1.24.7 1.156-1.05 1.26-1.005 2.707l-1.13.756v.948zM22 14.83c0 .346.121.68.328 1C23.439 14.106 27.342 13 32 13s8.56 1.106 9.672 2.83c.207-.32.328-.654.328-1 0-2.21-4.477-4-10-4s-10 1.79-10 4zm-1.1 9.114c0 1.273.424 3.314 2.041 3.818 0 3.863 2.68 6.921 5.34 9.185.78.664 2.25 1.126 3.719 1.126 1.469 0 2.938-.462 3.718-1.126 2.66-2.264 5.34-5.368 5.34-9.185 1.618-.504 2.042-2.545 2.042-3.818 0-1.273-.322-1.961-.774-2.174-.334-.158-.693-.093-1.013.087-.141.653-.248 1.14-.29 1.311-.206.851-1.023.773-1.023.773v-4.548C38.176 20.367 35.277 21 32 21s-6.176-.633-8-1.607v4.548s-.817.078-1.023-.773a86.572 86.572 0 0 1-.29-1.311c-.32-.18-.678-.245-1.013-.087-.452.213-.774.901-.774 2.174zM61.748 41.83c-.408-.43-1.22-.897-2.112-1.328-1.17-.578-2.716-1.09-3.412-1.35-.623-.234-.529-1.046-.658-2.135 1.763-.072 2.962-.246 3.568-.477.12-.045.18-.155.127-.272-.332-.724-1.194-2.894-1.302-4.138-.056-.632-.078-1.369-.115-2.125.007-.002.009-.005.016-.006-.26-2.895-.968-5.583-4.123-4.497 0 0-2.529-1.696-4.583 1.142-.863 1.192-1.08 2.093-1.132 3.355h.018c-.042.85-.013 1.636-.037 2.227-.043 1.045-.898 3.246-1.257 3.87-.077.133-.05.268.093.32.651.236 1.877.42 3.6.528-.046.412-.113 1.448-.294 1.818a4.069 4.069 0 0 1 2.187 2.017l.14.295c1.326.604 2.249 1.216 2.87 1.9.75.826 1.362 2.291 1.865 4.025H63s-.058-3.912-1.252-5.17zm-50-.936l.054-.115a4.066 4.066 0 0 1 2.097-1.977c-.49-.2-.567-.88-.602-1.413.76-.885 1.322-1.948 1.517-3.34.764-.238.917-1.203.917-1.804s-.105-.926-.319-1.027a.47.47 0 0 0-.412.013V29c.007-.997-.068-1.99-.35-2.507-.555-1.019-1.23-1.426-2.517-1.093-.844-.46-1.418-1.04-2.897-.627-1.028.288-2.153.81-2.745 1.595-.368.487-.46 1.56-.471 2.632L6 31.2a.463.463 0 0 0-.344.019c-.213.1-.318.426-.318 1.027s.153 1.566.917 1.804c.171 1.44.725 2.459 1.469 3.309-.025.601-.067 1.326-.64 1.486-1.2.335-3.858 1.178-4.793 2.163C1.097 42.265 1 47 1 47h5.859c.484-1.709 1.06-3.151 1.747-3.965.662-.785 1.67-1.474 3.142-2.14z"/></svg>
