<?xml version="1.0" encoding="UTF-8"?>
<svg width="510px" height="510px" viewBox="0 0 510 510" version="1.1" xmlns="http://www.w3.org/2000/svg" xmlns:xlink="http://www.w3.org/1999/xlink">
    <!-- Generator: Sketch 53.2 (72643) - https://sketchapp.com -->
    <title>Group</title>
    <desc>Created with Sketch.</desc>
    <defs>
        <polygon id="path-1" points="0.0001 0.044 509.99 0.044 509.99 509.9998 0.0001 509.9998"></polygon>
    </defs>
    <g id="Page-1" stroke="none" stroke-width="1" fill="none" fill-rule="evenodd">
        <g id="Vector-Smart-Object.ai">
            <g id="Group" transform="translate(0.000000, -0.044000)">
                <g id="Group-3">
                    <mask id="mask-2" fill="white">
                        <use xlink:href="#path-1"></use>
                    </mask>
                    <g id="Clip-2"></g>
                    <path d="M254.9951,25.4868 C381.5701,25.4868 484.5451,128.4548 484.5451,255.0218 C484.5451,381.5888 381.5701,484.5568 254.9951,484.5568 C128.4201,484.5568 25.4451,381.5858 25.4451,255.0218 C25.4451,128.4578 128.4201,25.4868 254.9951,25.4868 M254.9951,509.9998 C395.6001,509.9998 509.9901,395.6178 509.9901,255.0218 C509.9901,114.4258 395.6001,0.0438 254.9951,0.0438 C114.3901,0.0438 0.0001,114.4258 0.0001,255.0218 C0.0001,395.6178 114.3901,509.9998 254.9951,509.9998" id="Fill-1" fill="#C38E3D" mask="url(#mask-2)"></path>
                </g>
                <path d="M226.9522,336.0531 C259.3672,336.0531 283.4892,331.1531 299.6952,321.3541 C315.9012,311.5561 323.8172,289.6971 323.8172,255.3991 C323.8172,235.0471 319.2942,216.5801 310.6262,199.9971 C301.9572,183.0371 288.3892,174.7451 270.2972,174.3691 C259.7432,174.3691 248.4362,175.5001 237.8822,175.5001 C224.6912,175.5001 213.7602,173.6151 209.2372,178.1381 C206.5982,180.7761 204.7142,189.0681 203.5832,202.6351 C202.4522,216.2021 202.0762,230.9001 201.6992,246.7311 C201.6992,262.5601 201.6992,277.2581 202.0762,290.8281 C202.4522,304.3971 202.8292,312.3101 202.8292,314.9481 C202.8292,325.1241 204.3372,331.1541 207.7292,333.0391 C211.1212,334.9231 217.5292,336.0541 226.9522,336.0541 L226.9522,336.0531 Z M97.6722,244.4801 L103.7032,95.2331 C114.2562,84.6801 126.6942,87.3181 143.2792,87.3181 C157.2242,87.3181 171.5462,85.4331 186.6232,85.4331 C215.2692,85.4331 244.6672,85.4331 274.8202,85.0571 C305.3492,84.6801 332.1122,89.5791 355.4792,100.1321 C378.0942,110.6851 396.9392,128.7761 412.0162,154.0271 C427.0932,179.2791 434.6312,207.9221 434.6312,239.2041 C434.6312,253.1491 433.8772,268.2241 432.7472,284.4311 C431.6162,300.6381 428.9782,314.5821 424.8312,326.6421 C419.5552,342.0941 415.0322,353.4011 410.8862,360.9381 C406.7392,368.4751 399.5782,378.2751 389.0252,390.3341 C372.0642,409.1781 347.5662,419.7301 315.5272,421.9921 C283.4892,423.8761 253.3362,425.0071 224.3142,425.0071 L108.2272,424.6301 C105.2112,422.3691 103.3272,421.2381 102.9502,421.2381 C102.5732,420.8611 101.4422,418.9771 99.5582,414.8311 C99.5582,358.6751 95.4122,298.7511 97.6732,244.4801 L97.6722,244.4801 Z" id="Fill-4" fill="#FFFFFF"></path>
            </g>
        </g>
    </g>
</svg>