<svg aria-hidden="true" focusable="false" role="img" width="16" height="18" xmlns="http://www.w3.org/2000/svg"><g fill="none"><path d="M-2-1h24v24H-2z"/><path d="M12.8 11.403c-.72 0-1.44.244-1.92.651L6.4 9.367c0-.408 0-.408-.08-.896l4.48-2.688a3.04 3.04 0 0 0 2 .733c1.76 0 3.2-1.466 3.2-3.258S14.56 0 12.8 0c-1.76 0-3.2 1.466-3.2 3.258 0 .163 0 .326.08.489L5.12 6.353C4.64 5.946 3.92 5.7 3.2 5.7 1.44 5.701 0 7.167 0 8.96s1.44 3.258 3.2 3.258c.72 0 1.44-.244 1.92-.651l4.48 2.687c0 .163-.08.326-.08.49 0 1.79 1.44 3.257 3.2 3.257 1.76 0 3.2-1.466 3.2-3.258.08-1.873-1.36-3.34-3.12-3.34z" fill="#FFF"/></g></svg>
