<?xml version="1.0" encoding="utf-8"?>
<!-- Generator: Adobe Illustrator 21.0.2, SVG Export Plug-In . SVG Version: 6.00 Build 0)  -->
<!DOCTYPE svg PUBLIC "-//W3C//DTD SVG 1.1//EN" "http://www.w3.org/Graphics/SVG/1.1/DTD/svg11.dtd">
<svg version="1.1" xmlns="http://www.w3.org/2000/svg" xmlns:xlink="http://www.w3.org/1999/xlink" x="0px" y="0px" width="64px"
	 height="64px" viewBox="0 0 64 64" style="enable-background:new 0 0 64 64;" xml:space="preserve">
<style type="text/css">
	.st0{fill:none;}
</style>
<g id="_x36_4px_Box">
	<rect class="st0" width="64" height="64"/>
</g>
<g id="Icon">
	<g>
		<g>
			<path d="M51.5,38.4C48.8,46.6,41.1,52.5,32,52.5c-10.7,0-19.8-8.3-20.4-19.3c0,0,0.1,0,0.2,0.1c0.2,0.3,1,2.7,1.1,2.8l2.8,1.6
				c0.7,0.4,1.5,0.2,2-0.3c0.5-0.6,0.5-1.4,0-2l-6.9-8.2c-0.3-0.4-0.8-0.6-1.2-0.6c-0.5,0-0.9,0.2-1.2,0.6l-6.9,8.2
				c-0.5,0.6-0.5,1.4,0,2c0.5,0.6,1.3,0.7,2,0.3l3.4-2C8.6,48,19.2,57.5,32,57.5c11.5,0,21.2-7.6,24.4-18
				C54.9,40.4,53,40.3,51.5,38.4z M62.6,27.2c-0.5-0.6-1.3-0.7-2-0.3l-3.3,2C55.8,16.3,45,6.5,32,6.5c-11.8,0-21.7,8-24.6,18.9
				c1.4-1,3.6-1,5,0.7c2.5-8.4,10.4-14.6,19.6-14.6c11.1,0,20.2,8.8,20.5,20c0,0.1-0.1,0.1-0.3-0.1c-0.1-0.2-0.8-2.2-0.9-2.7
				l-2.9-1.7c-0.7-0.4-1.5-0.2-2,0.3c-0.5,0.6-0.5,1.4,0,2l6.9,8.2c0.3,0.4,0.8,0.6,1.2,0.6c0.5,0,0.9-0.2,1.2-0.6l6.9-8.2
				C63.1,28.7,63.1,27.8,62.6,27.2z M41,44c1.1,0,2-0.9,2-2V27.8c0-0.5-0.2-1-0.6-1.4l-7.8-7.8c-0.4-0.4-0.9-0.6-1.4-0.6H23
				c-1.1,0-2,0.9-2,2v22c0,1.1,0.9,2,2,2H41z M24,21h9v5c0,1.1,0.9,2,2,2h5v13H24V21z"/>
		</g>
	</g>
</g>
</svg>
