<?xml version="1.0" encoding="UTF-8" standalone="no"?>
<!-- Created with Inkscape (http://www.inkscape.org/) -->

<svg
   xmlns:dc="http://purl.org/dc/elements/1.1/"
   xmlns:cc="http://creativecommons.org/ns#"
   xmlns:rdf="http://www.w3.org/1999/02/22-rdf-syntax-ns#"
   xmlns:svg="http://www.w3.org/2000/svg"
   xmlns="http://www.w3.org/2000/svg"
   xmlns:sodipodi="http://sodipodi.sourceforge.net/DTD/sodipodi-0.dtd"
   xmlns:inkscape="http://www.inkscape.org/namespaces/inkscape"
   width="192.04485mm"
   height="29.121386mm"
   viewBox="0 0 680.47386 103.18601"
   id="svg3702"
   version="1.1"
   inkscape:version="0.91 r13725"
   sodipodi:docname="Overheid_nl_logo.svg">
  <defs
     id="defs3704" />
  <sodipodi:namedview
     id="base"
     pagecolor="#ffffff"
     bordercolor="#666666"
     borderopacity="1.0"
     inkscape:pageopacity="0.0"
     inkscape:pageshadow="2"
     inkscape:zoom="1.2837891"
     inkscape:cx="198.63497"
     inkscape:cy="-99.694989"
     inkscape:document-units="px"
     inkscape:current-layer="layer1"
     showgrid="false"
     fit-margin-top="0"
     fit-margin-left="0"
     fit-margin-right="0"
     fit-margin-bottom="0"
     inkscape:window-width="1920"
     inkscape:window-height="1056"
     inkscape:window-x="1920"
     inkscape:window-y="24"
     inkscape:window-maximized="1" />
  <metadata
     id="metadata3707">
    <rdf:RDF>
      <cc:Work
         rdf:about="">
        <dc:format>image/svg+xml</dc:format>
        <dc:type
           rdf:resource="http://purl.org/dc/dcmitype/StillImage" />
        <dc:title></dc:title>
      </cc:Work>
    </rdf:RDF>
  </metadata>
  <g
     inkscape:label="Laag 1"
     inkscape:groupmode="layer"
     id="layer1"
     transform="translate(-19.635278,-19.75899)">
    <g
       transform="matrix(5.6879613,0,0,5.6879613,-885.45963,-1274.6033)"
       id="g3665">
      <path
         d="m 170.14423,227.77531 c -2.12114,1e-5 -3.79636,0.68633 -5.03598,2.0499 -1.22585,1.3636 -1.68028,3.41963 -1.68028,5.85755 1.13606,-0.18019 1.51913,-0.25057 2.79404,-0.43371 -1e-5,-3.33004 1.30525,-5.10101 3.92225,-5.10102 2.63075,1e-5 3.95452,1.79381 3.95453,5.37494 -1e-5,3.58114 -1.32378,5.37494 -3.95453,5.37494 -0.85129,0 -0.96845,-0.0252 -1.33167,-0.14166 l -1.10981,2.15326 c 0.92763,0.32366 1.17849,0.36112 2.44148,0.36112 2.12113,0 3.81248,-0.68632 5.05212,-2.0499 1.23961,-1.36359 1.85619,-3.25983 1.85621,-5.69776 -2e-5,-2.43792 -0.6166,-4.33416 -1.85621,-5.69776 -1.23964,-1.36357 -2.93099,-2.04989 -5.05212,-2.0499 z"
         id="path9610"
         inkscape:connector-curvature="0"
         sodipodi:nodetypes="scccsssccsscccs"
         style="font-style:normal;font-variant:normal;font-weight:bold;font-stretch:normal;font-size:40px;line-height:125%;font-family:'M+ 1c';-inkscape-font-specification:'Sans Bold';letter-spacing:0px;word-spacing:0px;fill:#134273;fill-opacity:1;stroke:none" />
      <path
         d="m 181.37612,232.32282 2.37595,9.15257 0.0413,0 2.35528,-9.15257 2.8718,0 -3.47095,10.74342 -3.65689,0 -3.47096,-10.74342 2.95445,0"
         id="path9612"
         inkscape:connector-curvature="0"
         style="font-style:normal;font-variant:normal;font-weight:bold;font-stretch:normal;font-size:40px;line-height:125%;font-family:'M+ 1c';-inkscape-font-specification:'Sans Bold';letter-spacing:0px;word-spacing:0px;fill:#134273;fill-opacity:1;stroke:none" />
      <path
         d="m 192.8136,236.68217 4.42133,0 c -0.0413,-1.76302 -0.73001,-2.64453 -2.06604,-2.64454 -0.73001,1e-5 -1.28784,0.20662 -1.6735,0.61982 -0.37189,0.41322 -0.59915,1.08812 -0.68179,2.02472 m 0,1.79746 c 0.0689,0.9917 0.365,1.71482 0.8884,2.16934 0.52339,0.44076 1.29471,0.66113 2.31397,0.66113 0.82641,0 1.85254,-0.2066 3.0784,-0.61981 l 0,2.10737 c -1.25341,0.31679 -2.38973,0.47518 -3.40897,0.47518 -1.80435,0 -3.19548,-0.4683 -4.17341,-1.4049 -0.96415,-0.95038 -1.44623,-2.34152 -1.44623,-4.17341 0,-1.81811 0.43387,-3.20236 1.30161,-4.15275 0.86773,-0.95037 2.12113,-1.42556 3.7602,-1.42557 3.14037,1e-5 4.71056,1.83879 4.71057,5.51634 -1e-5,0.27547 -0.0207,0.55783 -0.062,0.84708 l -6.96256,0"
         id="path9614"
         inkscape:connector-curvature="0"
         style="font-style:normal;font-variant:normal;font-weight:bold;font-stretch:normal;font-size:40px;line-height:125%;font-family:'M+ 1c';-inkscape-font-specification:'Sans Bold';letter-spacing:0px;word-spacing:0px;fill:#134273;fill-opacity:1;stroke:none" />
      <path
         d="m 202.16825,232.32282 2.74784,0 0,2.06604 0.0413,0 c 0.45452,-0.63358 1.06745,-1.13631 1.83878,-1.50821 0.78509,-0.37188 1.63217,-0.55782 2.54123,-0.55783 l 0.41321,0 0,2.12802 -0.41321,0 c -1.41869,1e-5 -2.49303,0.32369 -3.22303,0.97104 -0.73,0.64737 -1.095,1.57709 -1.095,2.78916 l 0,4.8552 -2.85114,0 0,-10.74342"
         id="path9616"
         inkscape:connector-curvature="0"
         style="font-style:normal;font-variant:normal;font-weight:bold;font-stretch:normal;font-size:40px;line-height:125%;font-family:'M+ 1c';-inkscape-font-specification:'Sans Bold';letter-spacing:0px;word-spacing:0px;fill:#134273;fill-opacity:1;stroke:none" />
      <path
         d="m 215.10749,227.98413 0,5.57831 0.0413,0 c 0.97792,-0.96414 2.04538,-1.44622 3.20237,-1.44623 1.25339,1e-5 2.16245,0.35813 2.72717,1.07435 0.56471,0.71623 0.84707,1.94209 0.84708,3.67755 l 0,6.19813 -2.68585,0 0,-5.78492 c -1e-5,-1.1983 -0.13086,-1.99028 -0.39255,-2.37595 -0.24794,-0.38565 -0.72312,-0.57848 -1.42557,-0.57849 -0.55095,1e-5 -1.07435,0.24794 -1.57019,0.74378 -0.49586,0.49585 -0.74378,1.02614 -0.74378,1.59085 l 0,6.40473 -2.74784,0 0,-15.08211 2.74784,0"
         id="path9618"
         inkscape:connector-curvature="0"
         style="font-style:normal;font-variant:normal;font-weight:bold;font-stretch:normal;font-size:40px;line-height:125%;font-family:'M+ 1c';-inkscape-font-specification:'Sans Bold';letter-spacing:0px;word-spacing:0px;fill:#134273;fill-opacity:1;stroke:none" />
      <path
         d="m 226.79032,236.68217 4.42133,0 c -0.0413,-1.76302 -0.73001,-2.64453 -2.06604,-2.64454 -0.73001,1e-5 -1.28784,0.20662 -1.6735,0.61982 -0.37189,0.41322 -0.59916,1.08812 -0.68179,2.02472 m 0,1.79746 c 0.0689,0.9917 0.365,1.71482 0.8884,2.16934 0.52339,0.44076 1.29471,0.66113 2.31396,0.66113 0.82642,0 1.85255,-0.2066 3.07841,-0.61981 l 0,2.10737 c -1.25341,0.31679 -2.38973,0.47518 -3.40897,0.47518 -1.80435,0 -3.19548,-0.4683 -4.17341,-1.4049 -0.96415,-0.95038 -1.44623,-2.34152 -1.44623,-4.17341 0,-1.81811 0.43387,-3.20236 1.30161,-4.15275 0.86773,-0.95037 2.12113,-1.42556 3.7602,-1.42557 3.14037,1e-5 4.71056,1.83879 4.71057,5.51634 -1e-5,0.27547 -0.0207,0.55783 -0.062,0.84708 l -6.96256,0"
         id="path9620"
         inkscape:connector-curvature="0"
         style="font-style:normal;font-variant:normal;font-weight:bold;font-stretch:normal;font-size:40px;line-height:125%;font-family:'M+ 1c';-inkscape-font-specification:'Sans Bold';letter-spacing:0px;word-spacing:0px;fill:#134273;fill-opacity:1;stroke:none" />
      <path
         d="m 236.76478,243.06624 0,-10.74342 2.89246,0 0,10.74342 -2.89246,0"
         id="path9622"
         inkscape:connector-curvature="0"
         sodipodi:nodetypes="ccccc"
         style="font-style:normal;font-variant:normal;font-weight:bold;font-stretch:normal;font-size:40px;line-height:125%;font-family:'M+ 1c';-inkscape-font-specification:'Sans Bold';letter-spacing:0px;word-spacing:0px;fill:#134273;fill-opacity:1;stroke:none" />
      <path
         d="m 250.02458,227.98413 2.74784,0 0,15.08211 -2.5619,0 -0.0413,-1.34293 -0.0413,0 c -0.92284,1.03302 -2.01095,1.54953 -3.26434,1.54953 -1.23963,0 -2.26577,-0.49585 -3.07841,-1.48755 -0.79886,-1.00547 -1.1983,-2.36905 -1.1983,-4.09076 0,-1.77679 0.38566,-3.14727 1.15698,-4.11143 0.7851,-0.97791 1.825,-1.46688 3.11973,-1.46689 1.17075,1e-5 2.21066,0.43388 3.11972,1.30161 l 0.0413,0 0,-5.43369 m -4.71058,9.7104 c 0,1.17076 0.21349,2.05227 0.64048,2.64453 0.42697,0.5785 1.00546,0.86774 1.73547,0.86774 0.63358,0 1.18452,-0.21349 1.65284,-0.64047 0.48206,-0.42698 0.7231,-0.91594 0.72311,-1.46689 l 0,-2.80982 c -1e-5,-0.55094 -0.24105,-1.0399 -0.72311,-1.46689 -0.46832,-0.42697 -1.01926,-0.64046 -1.65284,-0.64047 -1.58397,10e-6 -2.37595,1.17076 -2.37595,3.51227"
         id="path9624"
         inkscape:connector-curvature="0"
         style="font-style:normal;font-variant:normal;font-weight:bold;font-stretch:normal;font-size:40px;line-height:125%;font-family:'M+ 1c';-inkscape-font-specification:'Sans Bold';letter-spacing:0px;word-spacing:0px;fill:#134273;fill-opacity:1;stroke:none" />
      <path
         d="m 262.85825,232.32282 2.60322,0 0.0413,1.34293 0.0413,0 c 0.95037,-1.03301 2.05226,-1.54953 3.30567,-1.54954 1.25339,1e-5 2.16245,0.35813 2.72717,1.07435 0.56471,0.70246 0.84707,1.88011 0.84708,3.53293 l 0,6.34275 -2.68585,0 0,-6.13615 c -10e-6,-1.03301 -0.13086,-1.73546 -0.39255,-2.10736 -0.26171,-0.38565 -0.7369,-0.57848 -1.42557,-0.57849 -0.56472,1e-5 -1.09501,0.24104 -1.59085,0.72311 -0.48208,0.48209 -0.72312,0.9986 -0.72312,1.54954 l 0,6.54935 -2.74784,0 0,-10.74342"
         id="path9628"
         inkscape:connector-curvature="0"
         style="font-style:normal;font-variant:normal;font-weight:bold;font-stretch:normal;font-size:40px;line-height:125%;font-family:'M+ 1c';-inkscape-font-specification:'Sans Bold';letter-spacing:0px;word-spacing:0px;fill:#134273;fill-opacity:1;stroke:none" />
      <path
         d="m 275.86626,243.06624 0,-15.49532 2.89245,0 0,15.49532 -2.89245,0"
         id="path9630"
         inkscape:connector-curvature="0"
         style="font-style:normal;font-variant:normal;font-weight:bold;font-stretch:normal;font-size:40px;line-height:125%;font-family:'M+ 1c';-inkscape-font-specification:'Sans Bold';letter-spacing:0px;word-spacing:0px;fill:#134273;fill-opacity:1;stroke:none" />
      <path
         style="fill:#df6f00;fill-opacity:1;stroke:none"
         d="m 165.09643,245.70285 5.56954,-10.48584 -11.54131,1.85995 5.97794,2.1804 z"
         id="path8839-9"
         inkscape:connector-curvature="0"
         sodipodi:nodetypes="ccccc" />
      <ellipse
         style="fill:#b1d5ec;fill-opacity:1;stroke:none"
         id="path9660"
         cx="257.86395"
         cy="241.63289"
         rx="1.6463778"
         ry="1.4284749" />
      <ellipse
         style="fill:#134273;fill-opacity:1;stroke:none"
         id="path9660-0"
         cx="238.20728"
         cy="228.80054"
         rx="1.4277825"
         ry="1.2388113" />
    </g>
  </g>
</svg>
