<?xml version="1.0" encoding="UTF-8"?>
<svg width="24px" height="24px" viewBox="0 0 24 24" version="1.1" xmlns="http://www.w3.org/2000/svg" xmlns:xlink="http://www.w3.org/1999/xlink">
    <!-- Generator: Sketch 62 (91390) - https://sketch.com -->
    <title>01. Ontwerpprincipes/03 Icons/24/Kaartlagen</title>
    <desc>Created with Sketch.</desc>
    <g id="01.-Ontwerpprincipes/03-Icons/24/Kaartlagen" stroke="none" stroke-width="1" fill="none" fill-rule="evenodd">
        <g id="Icon" transform="translate(4.000000, 4.000000)" fill="#154273">
            <path d="M14.6860582,8.10616727 L15.7730109,8.91483636 C15.8972582,9.00725818 15.8972582,9.19786182 15.7730109,9.29028364 L15.7730109,9.29028364 L8.28405091,14.8620073 C8.07453818,15.0178764 7.79165818,15.0178764 7.58214545,14.8620073 L7.58214545,14.8620073 L0.0931854545,9.29028364 C-0.0310618182,9.19783273 -0.0310618182,9.00725818 0.0931854545,8.91483636 L0.0931854545,8.91483636 L1.18013818,8.10616727 L7.93309818,12.9832873 L14.6860582,8.10616727 Z M7.58214545,0.116901818 C7.79165818,-0.0389672727 8.07453818,-0.0389672727 8.28405091,0.116901818 L8.28405091,0.116901818 L15.7730109,5.68865455 C15.8972582,5.78110545 15.8972582,5.97168 15.7730109,6.06410182 L15.7730109,6.06410182 L8.28405091,11.6358255 C8.07453818,11.7916945 7.79165818,11.7916945 7.58214545,11.6358255 L7.58214545,11.6358255 L0.0931854545,6.06410182 C-0.0310618182,5.97168 -0.0310618182,5.78107636 0.0931854545,5.68865455 L0.0931854545,5.68865455 Z" id="Combined-Shape"></path>
        </g>
    </g>
</svg>