<svg aria-hidden="true" focusable="false" role="img" xmlns="http://www.w3.org/2000/svg" width="64" height="64"><path fill="#154273" d="M61.658 25.567l-29.044-9.369a2 2 0 0 0-1.228 0L2.342 25.567a.5.5 0 0 0-.027.942L8 28.71v7.07c-.61.549-1 1.336-1 2.221 0 .764.295 1.455.766 1.984-1.434 2.252-3.196 6.047-3.295 7.78-.118 2.06 2.529 2.92 3.823 3.154s4.353.082 4.647-2.447c.229-1.969-.573-6.335-.941-8.18v-.07c.61-.549 1-1.336 1-2.221s-.39-1.672-1-2.221v-5.52l15.691 6.083c0 .064-.033.284-.384.264L16 34.806V44.93h.008c0 .024-.008.045-.008.069 0 3.866 7.163 7 16 7s16-3.134 16-7c0-.024-.008-.045-.008-.069H48V31.807l13.685-5.298a.5.5 0 0 0-.027-.942z"/></svg>
